<?xml version="1.0" encoding="utf-8"?>
<!-- Generator: Adobe Illustrator 22.0.1, SVG Export Plug-In . SVG Version: 6.00 Build 0)  -->
<svg version="1.1" id="Layer_1" xmlns="http://www.w3.org/2000/svg" xmlns:xlink="http://www.w3.org/1999/xlink" x="0px" y="0px"
	 viewBox="0 0 612 792" style="enable-background:new 0 0 612 792;" xml:space="preserve">
<style type="text/css">
	.st0{fill:#007934;}
	.st1{fill:#7BC580;}
	.st2{fill:#7CC680;}
	.st3{fill:#00A04E;}
	.st4{fill:#00793F;}
	.st5{font-family:'AlegreyaSansSC-Italic';}
	.st6{font-size:27.0283px;}
</style>
<g>
	<g>
		<path d="M135.4,491.3c-4,3.4-8.4,6-13.3,7.9c-4.9,1.8-10,2.7-15.3,2.7c-4,0-7.9-0.5-11.7-1.6c-3.7-1.1-7.3-2.5-10.5-4.5
			c-3.3-1.9-6.3-4.2-8.9-6.9c-2.7-2.7-5-5.7-6.9-8.9c-1.9-3.3-3.4-6.8-4.5-10.5c-1.1-3.7-1.6-7.6-1.6-11.7s0.5-7.9,1.6-11.7
			c1-3.8,2.5-7.3,4.5-10.6c1.9-3.3,4.2-6.3,6.9-9c2.7-2.7,5.7-5,8.9-6.9c3.3-1.9,6.8-3.4,10.5-4.5c3.7-1.1,7.6-1.6,11.7-1.6
			c5.3,0,10.4,0.9,15.3,2.7c4.9,1.8,9.4,4.4,13.3,7.9l-9,14.9c-2.5-2.7-5.5-4.8-8.9-6.2c-3.4-1.4-7-2.2-10.7-2.2
			c-3.8,0-7.3,0.7-10.6,2.1c-3.3,1.4-6.2,3.4-8.6,5.8c-2.5,2.4-4.4,5.3-5.8,8.6c-1.4,3.3-2.1,6.8-2.1,10.6s0.7,7.2,2.1,10.5
			c1.4,3.3,3.4,6.1,5.8,8.6c2.5,2.5,5.3,4.4,8.6,5.8c3.3,1.4,6.8,2.1,10.6,2.1c3.7,0,7.3-0.7,10.7-2.2c3.4-1.4,6.4-3.5,8.9-6.2
			L135.4,491.3z"/>
		<path d="M159.8,500.1h-16.4v-89h16.4V500.1z"/>
		<path d="M233.8,467.7c0,4.8-0.9,9.2-2.6,13.3s-4,7.7-7,10.6c-2.9,3-6.4,5.4-10.3,7.1c-3.9,1.7-8.2,2.6-12.7,2.6
			c-4.5,0-8.7-0.9-12.6-2.6c-3.9-1.7-7.4-4.1-10.3-7.1c-3-3-5.3-6.5-7-10.6c-1.7-4.1-2.6-8.5-2.6-13.3c0-4.8,0.9-9.3,2.6-13.4
			c1.7-4.1,4-7.7,7-10.7c3-3,6.4-5.3,10.3-7c3.9-1.7,8.2-2.6,12.6-2.6c4.5,0,8.7,0.8,12.7,2.4c3.9,1.6,7.4,3.9,10.3,6.8
			c2.9,3,5.3,6.5,7,10.6S233.8,462.6,233.8,467.7z M217.4,467.7c0-2.6-0.4-5-1.3-7.1c-0.9-2.1-2-3.9-3.5-5.5
			c-1.5-1.5-3.2-2.7-5.1-3.5c-2-0.8-4.1-1.2-6.3-1.2c-2.2,0-4.3,0.4-6.3,1.2c-2,0.8-3.7,2-5.1,3.5c-1.4,1.5-2.6,3.3-3.4,5.5
			c-0.8,2.1-1.2,4.5-1.2,7.1c0,2.5,0.4,4.7,1.2,6.8c0.8,2.1,2,3.9,3.4,5.5c1.4,1.5,3.2,2.8,5.1,3.7c2,0.9,4.1,1.3,6.3,1.3
			c2.2,0,4.3-0.4,6.3-1.2c2-0.8,3.7-2,5.1-3.5c1.5-1.5,2.6-3.3,3.5-5.5C217,472.6,217.4,470.2,217.4,467.7z"/>
		<path d="M289.5,492.6c-1.3,1.2-2.7,2.3-4.2,3.4c-1.5,1.1-3,2-4.7,2.7c-1.6,0.8-3.3,1.4-5,1.8c-1.7,0.5-3.5,0.7-5.3,0.7
			c-3.9,0-7.6-0.7-11.1-2.1c-3.4-1.4-6.5-3.4-9.1-5.9c-2.6-2.6-4.6-5.7-6.1-9.3c-1.5-3.7-2.2-7.8-2.2-12.3v-35.2h16.2v35.2
			c0,2.1,0.3,4.1,1,5.7c0.7,1.7,1.5,3.1,2.6,4.3c1.1,1.2,2.4,2,3.9,2.6c1.5,0.6,3.1,0.9,4.8,0.9c1.7,0,3.2-0.4,4.7-1.2
			c1.5-0.8,2.8-1.8,3.9-3.1c1.1-1.3,2-2.7,2.6-4.3c0.6-1.6,1-3.3,1-5v-35.2h16.2v63.7h-3.9L289.5,492.6z"/>
		<path d="M372.7,500.1h-3.9l-6.3-8.7c-1.5,1.4-3.2,2.7-4.9,3.9c-1.7,1.2-3.5,2.3-5.4,3.2c-1.9,0.9-3.9,1.6-5.9,2.1
			c-2,0.5-4,0.8-6.1,0.8c-4.5,0-8.7-0.8-12.6-2.5c-3.9-1.7-7.4-4-10.3-7c-3-3-5.3-6.5-7-10.6c-1.7-4.1-2.6-8.6-2.6-13.4
			c0-4.8,0.9-9.3,2.6-13.4c1.7-4.1,4-7.7,7-10.7c3-3,6.4-5.4,10.3-7.1c3.9-1.7,8.2-2.6,12.6-2.6c1.4,0,2.9,0.1,4.4,0.4
			c1.5,0.2,3,0.6,4.5,1.2c1.4,0.5,2.8,1.2,4.1,2.1c1.3,0.9,2.3,1.9,3.2,3.2v-29.7h16.4V500.1z M356.4,467.7c0-2.2-0.4-4.4-1.3-6.5
			c-0.9-2.1-2-3.9-3.5-5.5c-1.5-1.6-3.2-2.9-5.1-3.9c-2-1-4.1-1.5-6.3-1.5c-2.2,0-4.3,0.4-6.3,1.2c-2,0.8-3.7,1.9-5.1,3.4
			s-2.6,3.3-3.4,5.4c-0.8,2.1-1.2,4.6-1.2,7.3c0,2.3,0.4,4.6,1.2,6.7c0.8,2.1,2,3.9,3.4,5.5c1.4,1.6,3.2,2.8,5.1,3.7
			c2,0.9,4.1,1.4,6.3,1.4c2.2,0,4.3-0.5,6.3-1.5c2-1,3.7-2.3,5.1-3.9c1.5-1.6,2.6-3.4,3.5-5.5C355.9,472,356.4,469.9,356.4,467.7z"
			/>
		<path class="st0" d="M410.4,484.5c0.6,0.2,1.3,0.3,1.9,0.4c0.6,0.1,1.3,0.1,1.9,0.1c1.6,0,3.1-0.2,4.6-0.7
			c1.5-0.4,2.8-1.1,4.1-1.9c1.3-0.8,2.4-1.8,3.4-3c1-1.2,1.8-2.5,2.5-3.9l11.9,12c-1.5,2.1-3.2,4.1-5.2,5.8c-2,1.7-4.1,3.2-6.4,4.3
			c-2.3,1.2-4.7,2.1-7.2,2.7c-2.5,0.6-5.1,0.9-7.8,0.9c-4.5,0-8.7-0.8-12.6-2.5c-3.9-1.7-7.4-4-10.3-7c-3-3-5.3-6.5-7-10.6
			c-1.7-4.1-2.6-8.6-2.6-13.5c0-5,0.9-9.6,2.6-13.8c1.7-4.2,4-7.7,7-10.6c3-2.9,6.4-5.2,10.3-6.8c3.9-1.6,8.2-2.4,12.6-2.4
			c2.7,0,5.3,0.3,7.8,1c2.5,0.6,4.9,1.5,7.2,2.7c2.3,1.2,4.4,2.6,6.4,4.4c2,1.7,3.7,3.7,5.2,5.8L410.4,484.5z M418.7,451
			c-0.8-0.3-1.5-0.5-2.2-0.5c-0.7-0.1-1.5-0.1-2.3-0.1c-2.2,0-4.3,0.4-6.3,1.2c-2,0.8-3.7,2-5.1,3.5c-1.4,1.5-2.6,3.3-3.4,5.4
			c-0.8,2.1-1.2,4.5-1.2,7.2c0,0.6,0,1.3,0.1,2c0.1,0.8,0.2,1.5,0.3,2.3c0.1,0.8,0.3,1.5,0.5,2.2c0.2,0.7,0.5,1.3,0.8,1.9L418.7,451
			z"/>
		<path class="st1" d="M510.1,500.1h-3.9l-6.3-8.7c-1.5,1.4-3.2,2.7-4.9,3.9c-1.7,1.2-3.5,2.3-5.4,3.2c-1.9,0.9-3.9,1.6-5.9,2.1
			s-4,0.8-6.1,0.8c-4.5,0-8.7-0.8-12.6-2.5c-3.9-1.7-7.4-4-10.3-7c-3-3-5.3-6.5-7-10.6c-1.7-4.1-2.6-8.6-2.6-13.4
			c0-4.8,0.9-9.3,2.6-13.4c1.7-4.1,4-7.7,7-10.7c3-3,6.4-5.4,10.3-7.1c3.9-1.7,8.2-2.6,12.6-2.6c1.4,0,2.9,0.1,4.4,0.4
			c1.5,0.2,3,0.6,4.5,1.2c1.4,0.5,2.8,1.2,4.1,2.1c1.3,0.9,2.3,1.9,3.2,3.2v-29.7h16.4V500.1z M493.7,467.7c0-2.2-0.4-4.4-1.3-6.5
			c-0.9-2.1-2-3.9-3.5-5.5c-1.5-1.6-3.2-2.9-5.1-3.9c-2-1-4.1-1.5-6.3-1.5c-2.2,0-4.3,0.4-6.3,1.2c-2,0.8-3.7,1.9-5.1,3.4
			c-1.4,1.5-2.6,3.3-3.4,5.4c-0.8,2.1-1.2,4.6-1.2,7.3c0,2.3,0.4,4.6,1.2,6.7c0.8,2.1,2,3.9,3.4,5.5c1.4,1.6,3.2,2.8,5.1,3.7
			c2,0.9,4.1,1.4,6.3,1.4c2.2,0,4.3-0.5,6.3-1.5c2-1,3.7-2.3,5.1-3.9c1.5-1.6,2.6-3.4,3.5-5.5C493.3,472,493.7,469.9,493.7,467.7z"
			/>
	</g>
	<path class="st2" d="M483.6,262.6c-2.4,0-4.6-1.6-5.4-4c-2.9-9.4-10.9-21.9-24.8-28.8c-14.7-7.3-32.8-7-53.6,0.8
		c-2.9,1.1-6.2-0.4-7.2-3.3c-1.1-2.9,0.4-6.2,3.3-7.2c23.5-8.8,45.1-8.9,62.5-0.3c21.6,10.7,28.9,30,30.6,35.7c0.9,3-0.8,6.1-3.8,7
		C484.6,262.5,484.1,262.6,483.6,262.6z"/>
	<path class="st3" d="M417.7,276.4c-2.7,0-5-1.9-5.5-4.6c-0.7-3.7-18.2-91.4-113-89.3c-94.6,2.1-104.7,85.3-105.1,88.8
		c-0.3,3.1-3.1,5.3-6.2,5c-3.1-0.3-5.3-3.1-5-6.2c0.1-1,11.4-96.5,116-98.9c104.4-2.3,124.1,97.5,124.3,98.5c0.6,3.1-1.5,6-4.5,6.6
		C418.4,276.4,418,276.4,417.7,276.4z"/>
	<path class="st4" d="M104.6,368c-2.9,0-5.4-2.2-5.6-5.2c-2.2-26,11.8-62.4,42.8-81.7c21.1-13.1,56.8-22.4,107.5,8.1
		c2.7,1.6,3.5,5.1,1.9,7.7c-1.6,2.7-5.1,3.5-7.7,1.9c-45.8-27.5-77.3-19.6-95.7-8.2c-26.9,16.7-39.4,49.2-37.6,71.2
		c0.3,3.1-2,5.8-5.1,6.1C104.9,368,104.8,368,104.6,368z"/>
	<path class="st4" d="M344.9,396.8h-242c-3.1,0-5.6-2.5-5.6-5.6s2.5-5.6,5.6-5.6h242c3.1,0,5.6,2.5,5.6,5.6S348,396.8,344.9,396.8z"
		/>
	<path class="st2" d="M505.5,396.3H385.2c-3.1,0-5.6-2.5-5.6-5.6s2.5-5.6,5.6-5.6h120.3c3.1,0,5.6,2.5,5.6,5.6
		S508.6,396.3,505.5,396.3z"/>
</g>
<text transform="matrix(1 0 0 1 86.4678 534.3457)" class="st5 st6">Medical Marijuana Delivery Service  </text>
</svg>
