<?xml version="1.0" encoding="utf-8"?>
<!-- Generator: Adobe Illustrator 22.0.1, SVG Export Plug-In . SVG Version: 6.00 Build 0)  -->
<svg version="1.1" id="Layer_1" xmlns="http://www.w3.org/2000/svg" xmlns:xlink="http://www.w3.org/1999/xlink" x="0px" y="0px"
	 viewBox="0 0 612 792" style="enable-background:new 0 0 612 792;" xml:space="preserve">
<style type="text/css">
	.st0{fill:#C17D12;}
	.st1{fill:#FFDDB3;}
	.st2{fill:#FAAB54;}
	.st3{fill:#F57E25;}
	.st4{fill:#FFFFFF;}
	.st5{fill:none;}
	.st6{font-family:'Alef-Bold';}
	.st7{font-size:13.5856px;}
	.st8{letter-spacing:18;}
	.st9{font-size:42.1752px;}
</style>
<path class="st0" d="M399.7,431.5c60.7-61.4,35.9-130.9,35.9-130.9H287.3v169.3C287.3,469.9,354.8,476.9,399.7,431.5z"/>
<path class="st1" d="M285.2,300.6h149.9c0,0-31.7-104.8-149.9-96.8V300.6z"/>
<path class="st2" d="M180.5,271.4c-41.1,75.3,0,132.6,0,132.6h106.7V203.4C287.2,203.4,225.9,201.3,180.5,271.4z"/>
<path class="st3" d="M287.3,398.8v71.5c0,0-74.5-9-110-71.5H287.3z"/>
<g>
	<path class="st4" d="M286.6,484.7c-2.5-11.9-3.9-23.9-5.4-35.8c-1.4-11.9-2.4-23.9-3.3-35.8c-1.6-23.9-2.4-47.7-2.4-71.6
		c0-23.9,0.8-47.7,2.4-71.6c0.8-11.9,1.9-23.9,3.3-35.8c1.5-11.9,3-23.9,5.4-35.8h1.3l0.3,35.8l0.1,35.8l0.2,71.6l-0.2,71.6
		l-0.1,35.8l-0.3,35.8H286.6z"/>
</g>
<g>
	<path class="st4" d="M252.9,299.4c15.9-4.6,31.8-7,47.8-8.7c15.9-1.6,31.8-2.4,47.8-2.4c15.9,0,31.8,0.8,47.8,2.4
		c15.9,1.7,31.8,4.1,47.8,8.7v1.3l-23.9,0.3l-23.9,0.1l-47.8,0.2l-47.8-0.2l-23.9-0.1l-23.9-0.3V299.4z"/>
</g>
<g>
	<path class="st4" d="M324.4,399.4c-13.5,4.6-27,7-40.5,8.7c-13.5,1.6-27,2.4-40.5,2.4c-13.5,0-27-0.8-40.5-2.4
		c-13.5-1.7-27-4.1-40.5-8.7v-1.3l20.3-0.3l20.3-0.1l40.5-0.2l40.5,0.2l20.3,0.1l20.3,0.3V399.4z"/>
</g>
<rect x="31.3" y="516.5" class="st5" width="509.5" height="16.9"/>
<text transform="matrix(1 0 0 1 140.5391 528.0488)" class="st6 st7 st8"> REAL ESTATE </text>
<text transform="matrix(1 0 0 1 161.7554 513.1104)" class="st6 st9 st8">MARVER</text>
</svg>
