<svg id="Layer_1" data-name="Layer 1" xmlns="http://www.w3.org/2000/svg" viewBox="0 0 437.1 268.24"><defs><style>.cls-1{fill:#fff;}.cls-2{fill:#231f20;}.cls-3{isolation:isolate;}.cls-4{fill:#f68720;}.cls-5{fill:#14a74a;}.cls-6{fill:#010101;}</style></defs><title>peregrine</title><path class="cls-1" d="M281.3,59.2c48.8-19,115,7.9,116.1,80.9H524.2V283.7H93.5V140H230c0-31,11.9-53.7,29.3-68.1" transform="translate(-90.2 -19.2)"/><path class="cls-2" d="M281.2,59a89.69,89.69,0,0,1,41.4-5.9,86.71,86.71,0,0,1,39.6,13.8,81.07,81.07,0,0,1,27.7,31.8,94.71,94.71,0,0,1,7,20.2,116.84,116.84,0,0,1,2.5,21.2l-2-1.9,126.8-.8h2.7v2.8l.2,35.9.1,18v18l.1,71.8v3.2H524l-107.7.2-53.8.1c-17.9.1-35.9,0-53.8-.1l-215.4-.4H90.2v-3.1l1-143.8v-2.3h2.2c22.8.2,45.5.2,68.3.5l68.3.7-1,1.1c.2-12.9,2.3-25.8,7.4-37.7A77,77,0,0,1,246,85.6a79,79,0,0,1,13.3-13.8l.3.3a74.48,74.48,0,0,0-13,13.9,75.84,75.84,0,0,0-9.3,16.7c-4.9,11.8-6.9,24.6-6.9,37.4v.2H93.6l.3-.3V283.6l-.3-.3H524.4l-.3.3V140l.3.3h-127V140c-.3-13.9-2.8-28-8.9-40.6A79.19,79.19,0,0,0,361.7,68a83.9,83.9,0,0,0-39-14,88.47,88.47,0,0,0-41.1,5.3Z" transform="translate(-90.2 -19.2)"/><g class="cls-3"><path class="cls-4" d="M133.15,156.41H149a23.52,23.52,0,0,1,7.66,1.14,14.82,14.82,0,0,1,6,4,15.81,15.81,0,0,1,3.72,6.77,42.36,42.36,0,0,1,1,10.5,52.15,52.15,0,0,1-.57,8.33,17.59,17.59,0,0,1-2.43,6.47,15.36,15.36,0,0,1-5.8,5.63,19.4,19.4,0,0,1-9.51,2h-5.38v28.76H133.15Zm10.56,35h5.06a10.8,10.8,0,0,0,5-.93,6,6,0,0,0,2.59-2.54,9.78,9.78,0,0,0,1-3.87q.15-2.28.15-5.07,0-2.59-.15-4.92a11.43,11.43,0,0,0-.93-4,5.91,5.91,0,0,0-2.43-2.69,9.39,9.39,0,0,0-4.76-1h-5.48Z" transform="translate(-90.2 -19.2)"/><path class="cls-4" d="M175.26,156.41h31.45v9.94h-20.9V188H204v9.93H185.81v21.62h20.9v10.55H175.26Z" transform="translate(-90.2 -19.2)"/><path class="cls-4" d="M213.53,156.41h17q18.62,0,18.62,21.63a27.23,27.23,0,0,1-2,11,15.59,15.59,0,0,1-7.08,7.4l11.37,33.62H240.22l-9.82-31.45h-6.32v31.45H213.53Zm10.55,32.9h6a10.71,10.71,0,0,0,4.45-.77,5.72,5.72,0,0,0,2.54-2.23,9.56,9.56,0,0,0,1.19-3.57,39.12,39.12,0,0,0,0-9.83,8.86,8.86,0,0,0-1.3-3.62,5.86,5.86,0,0,0-2.74-2.22,12.46,12.46,0,0,0-4.65-.72h-5.49Z" transform="translate(-90.2 -19.2)"/><path class="cls-4" d="M257.6,156.41h31.45v9.94h-20.9V188h18.21v9.93H268.15v21.62h20.9v10.55H257.6Z" transform="translate(-90.2 -19.2)"/><path class="cls-4" d="M295.26,173.79a18.75,18.75,0,0,1,1.55-7.86,16.46,16.46,0,0,1,4.08-5.64,17.72,17.72,0,0,1,5.69-3.36,18.34,18.34,0,0,1,12.73,0,17.72,17.72,0,0,1,5.69,3.36,16.46,16.46,0,0,1,4.08,5.64,18.75,18.75,0,0,1,1.55,7.86v3.73H320.08v-3.73c0-2.55-.7-4.43-2.12-5.63a7.85,7.85,0,0,0-10,0c-1.42,1.2-2.12,3.08-2.12,5.63v38.9c0,2.55.7,4.43,2.12,5.64a7.85,7.85,0,0,0,10,0c1.42-1.21,2.12-3.09,2.12-5.64V198.83H311.7v-9.31h18.93v23.17a18.61,18.61,0,0,1-1.55,7.91,16.35,16.35,0,0,1-4.08,5.59,17.72,17.72,0,0,1-5.69,3.36,18.34,18.34,0,0,1-12.73,0,17.72,17.72,0,0,1-5.69-3.36,16.35,16.35,0,0,1-4.08-5.59,18.61,18.61,0,0,1-1.55-7.91Z" transform="translate(-90.2 -19.2)"/><path class="cls-4" d="M339.94,156.41h17q18.61,0,18.62,21.63a27.23,27.23,0,0,1-2,11,15.54,15.54,0,0,1-7.08,7.4l11.38,33.62H366.63l-9.82-31.45H350.5v31.45H339.94Zm10.56,32.9h6a10.7,10.7,0,0,0,4.44-.77,5.72,5.72,0,0,0,2.54-2.23,9.56,9.56,0,0,0,1.19-3.57,39.12,39.12,0,0,0,0-9.83,9,9,0,0,0-1.29-3.62,5.89,5.89,0,0,0-2.75-2.22,12.46,12.46,0,0,0-4.65-.72H350.5Z" transform="translate(-90.2 -19.2)"/><path class="cls-4" d="M384.32,156.41h10.56v73.66H384.32Z" transform="translate(-90.2 -19.2)"/><path class="cls-4" d="M404.7,156.41h10.14l15.93,44.38H431V156.41h10.55v73.66H431.6l-16.14-44.28h-.21v44.28H404.7Z" transform="translate(-90.2 -19.2)"/><path class="cls-4" d="M451,156.41h31.45v9.94H461.6V188h18.2v9.93H461.6v21.62h20.89v10.55H451Z" transform="translate(-90.2 -19.2)"/></g><g class="cls-3"><path class="cls-5" d="M171.07,268a6.65,6.65,0,0,1-1.76-2,12.28,12.28,0,0,1-1.07-2.59,15.53,15.53,0,0,1-.52-2.83,27,27,0,0,1-.09-2.8,9.51,9.51,0,0,1,.82-1.83,13.82,13.82,0,0,1,1.07-1.59,17.34,17.34,0,0,1,1.24-1.44c.43-.46.86-.92,1.28-1.39a.8.8,0,0,1,.4.11,1.84,1.84,0,0,1,.45-.7,4.08,4.08,0,0,1,.63-.54l.66-.48a2.21,2.21,0,0,0,.56-.58,6.14,6.14,0,0,0,1.64-.62,16.44,16.44,0,0,0,1.39-.89c.45-.32.9-.62,1.37-.89a6.15,6.15,0,0,1,1.63-.63,2.8,2.8,0,0,1,.83-.63l1-.48q.5-.22,1-.48a2.22,2.22,0,0,0,.76-.7.58.58,0,0,0,.63.2c.27-.06.52-.13.74-.2a.46.46,0,0,1,.37.07,2.09,2.09,0,0,1,.28.24.87.87,0,0,0,.22.17c.06,0,.13,0,.2-.23.2,0,.26.12.17.26l-.17.3a.7.7,0,0,1,.62.13,1.46,1.46,0,0,0,.75.28c.13.12.16.22.12.29a1.06,1.06,0,0,0-.12.37,2.5,2.5,0,0,1,1.71,1.28,2.56,2.56,0,0,1,.07,1.81,4.28,4.28,0,0,1-1.09,1.74,4,4,0,0,1-1.76,1.06c-.76.2-1.47.39-2.13.59s-1.28.42-1.88.67a9.81,9.81,0,0,0-1.71.87,6.25,6.25,0,0,0-1.38,1.16,7.06,7.06,0,0,0-1.87.82,11.15,11.15,0,0,0-1.56,1.14c-.48.42-.94.86-1.39,1.32l-1.33,1.35a1.71,1.71,0,0,1-.22,1c-.15.22-.31.44-.48.67a3.63,3.63,0,0,0,.31,1.2l.5,1a28.14,28.14,0,0,0,6.28,1.09c2.2.13,4.39.22,6.56.24a6.62,6.62,0,0,0,.76.83,8.34,8.34,0,0,1,.78.8,3,3,0,0,1,.56.94,2.65,2.65,0,0,1,.09,1.28,14.52,14.52,0,0,1-1.37,1.2l-1.48,1.13a5.3,5.3,0,0,1-.8,0c-.31,0-.63,0-1,0a8.39,8.39,0,0,0-1,.06,3.25,3.25,0,0,0-.94.24,27.7,27.7,0,0,1-4.78-.58,36.85,36.85,0,0,1-4.51-1.2,12.17,12.17,0,0,0-.85-.9A2.6,2.6,0,0,0,171.07,268Z" transform="translate(-90.2 -19.2)"/><path class="cls-5" d="M245.81,267.75l.48-.37,0-.78c.62-1.5,1.25-3,1.91-4.33s1.33-2.8,2-4.25c.22-.47.45-.94.68-1.41s.47-1,.69-1.44a1.12,1.12,0,0,1,0-.32,1.29,1.29,0,0,1,.08-.39,14.22,14.22,0,0,0,.83-1.33c.21-.39.41-.8.61-1.22s.46-1,.72-1.48a8.22,8.22,0,0,1,1-1.45l.26-.37.41,0,.31-.13a1.69,1.69,0,0,1,.43-.05l.66.11a6.5,6.5,0,0,0,2.17-1.61,22.07,22.07,0,0,0,1.91-2.54l.44-.63.59.37a2.58,2.58,0,0,0,.59.23c.28.07.56.16.86.25.51.13,1,.27,1.51.43a2.8,2.8,0,0,1,1.15.65l.18.33c.05.27.1.52.13.74s.08.45.13.67c.1.52.19,1,.26,1.53a13.79,13.79,0,0,1,.15,1.69c.12.49.24,1,.35,1.5s.22,1,.32,1.49c.12.72.26,1.41.4,2.06a11.34,11.34,0,0,0,.6,1.87,1.25,1.25,0,0,1,.44,0,3.19,3.19,0,0,1,1-.23l.48,0,.15.44a1.74,1.74,0,0,0,.18.22,1.88,1.88,0,0,0,.26.22,1.81,1.81,0,0,1,.87.24,5.13,5.13,0,0,1,.46.39,1.72,1.72,0,0,0,.19.17l.18.13.67.26-.37.7a5.46,5.46,0,0,1-1.24,1.52,7.83,7.83,0,0,1-1.87,1.22,2.23,2.23,0,0,1,.09.48,4.39,4.39,0,0,0,.09.52c.1.49.18,1,.25,1.54a6.94,6.94,0,0,1,0,1.64,9.22,9.22,0,0,1-.87,1.72,6.78,6.78,0,0,1-1.19,1.37,6,6,0,0,1-1.53,1,4.79,4.79,0,0,1-1.78.43,2.62,2.62,0,0,1-.76-.26,3.82,3.82,0,0,1-.42-.3,2.32,2.32,0,0,0-.48-.29l-.49-.23.15-.55a.56.56,0,0,0,0-.52,2.73,2.73,0,0,0-.53-.59,1.2,1.2,0,0,1-.26-.24l-.26-.28-.74-.85,1.22-.33a2.85,2.85,0,0,0,1.48-.76,2.45,2.45,0,0,0,.3-1.65,3.8,3.8,0,0,0-1.52-.05c-.4.08-.79.18-1.19.27-.56.15-1.12.28-1.66.39a8.8,8.8,0,0,1-3.11.06l-.41,0-.11-.41a.24.24,0,0,0-.09-.16l-.17-.17c-.12-.15-.27-.35-.44-.59a1.08,1.08,0,0,1-.11-.93,1.93,1.93,0,0,1-.3-.85,4.38,4.38,0,0,0-.24.57c-.06.19-.12.37-.16.54l-.15.48-.48.08a.51.51,0,0,0-.13.22c0,.1-.05.17,0,.22l.15.41-.37.33a.69.69,0,0,1-.19.19l-.18.14a4.44,4.44,0,0,1-.21.78c-.08.25-.18.5-.28.74l-.35,1.15a3.87,3.87,0,0,0-.16,1.11l-.15.48a1.2,1.2,0,0,1-.46.44c-.19.1-.37.19-.54.26a1.58,1.58,0,0,0-.52.3l-.11.48-.56.07c-.32.08-.54.13-.68.15a2.19,2.19,0,0,1-.46,0l-.48,0c-.3-.29-.54-.52-.73-.68a3.4,3.4,0,0,0-.64-.43l-.23-.29a2,2,0,0,1-.18-.54,3.22,3.22,0,0,0-.11-.5,1.53,1.53,0,0,0-.22-.67Zm11.81-9.62c-.35.49-.68,1-1,1.55a4.38,4.38,0,0,1,.5,0l.5,0c.86-.05,1.66-.11,2.4-.19s1.54-.2,2.41-.37c-.2-.91-.41-1.84-.65-2.79s-.49-1.91-.76-2.87l-.18.37a23.92,23.92,0,0,0-1.78,2.15,17.28,17.28,0,0,0-1.41,2.18Z" transform="translate(-90.2 -19.2)"/><path class="cls-5" d="M331,263.75a4.21,4.21,0,0,1-1.7-1.77,5.66,5.66,0,0,1-.67-2.19,3.12,3.12,0,0,1,.46-1.39,3.08,3.08,0,0,1,.84-.81,4.11,4.11,0,0,1,1-.48c.35-.11.68-.2,1-.28l.56.19a3.09,3.09,0,0,0,.39.33l.39.3a.73.73,0,0,0,.46-.45c.06-.2.13-.39.2-.59s.16-.54.26-.82a5.82,5.82,0,0,1,.37-.81,1.6,1.6,0,0,1,0-.59q.07-.25.15-.45a1,1,0,0,0-.32-.2l-.31-.09-.22,0-.26-.06a2.9,2.9,0,0,1-.73-.68c-.11-.19-.22-.38-.35-.57s-.23-.37-.33-.52a2.69,2.69,0,0,0-.33-.41l-.45-.3.22-.44a.28.28,0,0,0,.08-.2.88.88,0,0,0-.15-.39,1.5,1.5,0,0,1,0-.71l.08-.44c.24-.32.38-.5.4-.55l.37-.37c.57-.15,1.15-.32,1.74-.5s1.18-.38,1.74-.58l1.74-.59c.6-.2,1.19-.37,1.78-.52a1.23,1.23,0,0,1,.65-.31l.64-.1a3.68,3.68,0,0,0,.49,0,.55.55,0,0,0,.33-.19c.42-.15.83-.27,1.22-.37.74-.19,1.71-.43,2.92-.7a29.63,29.63,0,0,1,4.07-.59l.78,0a1.7,1.7,0,0,0,.45,0l.44,0a2.63,2.63,0,0,1,2.55,1.18,2.88,2.88,0,0,1,.67.47l.56.53c.12.13.23.23.33.32a1.83,1.83,0,0,0,.26.2l.29.3a2.41,2.41,0,0,1,.15,1.74,1,1,0,0,1-.48.52l-.52.14-.48.26-.72,0h-.54c-.74,0-1.59,0-2.57.13s-2,.21-3,.37-2,.35-3,.59a19.66,19.66,0,0,0-2.52.76,3.22,3.22,0,0,1-.77.4,1.82,1.82,0,0,0-.34.19,1.82,1.82,0,0,1,0,.57,3,3,0,0,1-.11.54c0,.12,0,.25-.05.39s0,.28-.06.42a3.17,3.17,0,0,0-.74,2.19l-.18.37a1.06,1.06,0,0,0-.24.42,1,1,0,0,0,0,.58l.15.44c.49,0,1-.1,1.46-.17l1.53-.2c.69-.12,1.39-.23,2.09-.31a17.51,17.51,0,0,1,2.21-.13h1.44l-.33.33.4,0-.22.59.39.16.24.13.26.37a1.16,1.16,0,0,1,.33.36,1.51,1.51,0,0,1,.19.64l-.11.37-1.74,2.22-.22.3-.37-.11a4,4,0,0,0-1.34.15l-.63.16a2.16,2.16,0,0,1-.66.1l-1.48.24-1.19.16-1.57.28a7.57,7.57,0,0,0-1.42.39,3.41,3.41,0,0,1-.49,0l-.14,0a2.65,2.65,0,0,0-.74.11l-.71.22a1,1,0,0,0-.29.39l-.15.43a2.41,2.41,0,0,1-.21.5,4.91,4.91,0,0,1-.31.5l0,.66-.34.09s0,0,0,0a1.47,1.47,0,0,1-.1.56l-.16.48a1.33,1.33,0,0,0-.11.26.57.57,0,0,0,0,.22,2.12,2.12,0,0,1,.19,1.52,3.12,3.12,0,0,1-.56,1.24,2.91,2.91,0,0,1-1,.83,1.77,1.77,0,0,1-.87,0l-.58-.22-.37-.13a2.22,2.22,0,0,0-.37-.09l-.44-.37a2.73,2.73,0,0,0-.26-.43,4.43,4.43,0,0,1-.29-.42c-.13-.17-.25-.35-.37-.52a3,3,0,0,1-.34-.59,5.86,5.86,0,0,1-.09-2.17,11.82,11.82,0,0,1,.46-1.72c.05-.19.1-.38.15-.55S330.94,264,331,263.75Z" transform="translate(-90.2 -19.2)"/><path class="cls-5" d="M409.21,270a1.72,1.72,0,0,1-.43-.71,1.18,1.18,0,0,0-.61-.66c-.05-.37-.12-.8-.2-1.28s-.18-1-.26-1.48-.15-1-.19-1.52a5.7,5.7,0,0,1,.06-1.39,2.22,2.22,0,0,1,.24-.62l.33-.58a2.44,2.44,0,0,0,.26-.57,1.08,1.08,0,0,0,0-.59.33.33,0,0,0,.28-.24c0-.14.15-.18.35-.13.17-.55.36-1.05.55-1.52s.41-.93.63-1.37l.69-1.35a11.71,11.71,0,0,0,.64-1.54,3.67,3.67,0,0,1-.9-1.27,8,8,0,0,1-.43-1.39,13.71,13.71,0,0,1-.22-1.43,7.73,7.73,0,0,0-.3-1.46,4,4,0,0,1,1.08-1.09,6.24,6.24,0,0,1,1.39-.7,9.56,9.56,0,0,1,1.64-.45q.89-.16,1.89-.39,1.77-.56,3.18-.87c.94-.21,1.85-.38,2.74-.51s1.82-.26,2.78-.37,2.07-.28,3.33-.5a.14.14,0,0,0,.13.11h.24a.41.41,0,0,0,.41.26,1.25,1.25,0,0,0,0-.21.47.47,0,0,1,0-.16l.2,0,.22.08a.17.17,0,0,0,.17,0c.05,0,.06-.12,0-.24a3.88,3.88,0,0,0,1.14,1.27,7.84,7.84,0,0,0,1.56.87,3,3,0,0,1,0,.48,1.15,1.15,0,0,1-.06.28,1.39,1.39,0,0,0,0,.3,2,2,0,0,0,.07.46,5.25,5.25,0,0,1-1.35,1.56,6.23,6.23,0,0,1-1.61.85,11.27,11.27,0,0,1-1.8.44c-.63.1-1.27.2-1.92.32a16.14,16.14,0,0,0-2,.46,8,8,0,0,0-2,.89,1.25,1.25,0,0,0-.54-.1,3.16,3.16,0,0,0-.5.1l-.57.15a2.41,2.41,0,0,1-.76,0,1.92,1.92,0,0,1-.69.37l-.79.22a1.68,1.68,0,0,1,.16.81,1.67,1.67,0,0,0,.1.7,18.84,18.84,0,0,0,3.44,0c1.26-.12,2.49-.2,3.7-.25,0,.13,0,.21,0,.26a.37.37,0,0,0-.07.26,3.62,3.62,0,0,1,.63.56c.2.22.4.44.61.65a3,3,0,0,0,.65.51,1.18,1.18,0,0,0,.77.17,2.76,2.76,0,0,1,.26.78,1.43,1.43,0,0,1-.11.85c-.49.32-1,.65-1.44,1a14.78,14.78,0,0,1-1.46.91,8.61,8.61,0,0,1-1.65.66,6,6,0,0,1-1.92.23h-.32a.52.52,0,0,1-.31-.15,2,2,0,0,1-1,.13,1.91,1.91,0,0,0-1,.13,3.45,3.45,0,0,0-1.21-.19,3.69,3.69,0,0,1-1.2-.18q-.66,1-1.26,2a16.33,16.33,0,0,0-1,2.24,14.62,14.62,0,0,0,2.51.19q1,0,1.89-.15l1.83-.22a16.22,16.22,0,0,1,2.32-.08,7.22,7.22,0,0,1,2.12-.61,13.17,13.17,0,0,0,2.24-.5,1.3,1.3,0,0,1,.63.43c.18.21.34.42.5.63a3.2,3.2,0,0,0,.5.53.76.76,0,0,0,.67.15.94.94,0,0,1,.24.45c0,.17.07.33.11.48a.82.82,0,0,0,.17.35.41.41,0,0,0,.4.09,7.18,7.18,0,0,1-1.57,2.22,6.27,6.27,0,0,1-2,1.2,10.74,10.74,0,0,1-2.44.63l-3,.5a1.27,1.27,0,0,1-.68,0,1.9,1.9,0,0,0-.58-.09c-.69.13-1.51.25-2.46.37a18.28,18.28,0,0,1-2.87.15,12.5,12.5,0,0,1-2.77-.37A4.86,4.86,0,0,1,409.21,270Z" transform="translate(-90.2 -19.2)"/></g><path class="cls-6" d="M351,140a20.88,20.88,0,0,0,5.6-.5,6.25,6.25,0,0,0,4.3-2.8,6.35,6.35,0,0,0,.5-4.9,25.82,25.82,0,0,0-.8-2.6l-1.2-2.5a74.32,74.32,0,0,0-13.5-18.1c-2.7-2.7-5.5-5.2-8.3-7.8-1.4-1.2-2.9-2.4-4.4-3.6l-4.6-3.4a141.93,141.93,0,0,0-19.4-11.9c-1.7-.9-3.3-1.8-5.1-2.6l-5.2-2.4-5.3-2.6a52.94,52.94,0,0,1-5.2-2.9A101.18,101.18,0,0,1,269.7,57a143.64,143.64,0,0,1-15.4-17.7l-1.7-2.4L251,34.5c-1.1-1.6-2.1-3.3-3.1-4.9s-2-3.3-2.9-5.1-1.8-3.5-2.6-5.2l.3-.1a137.07,137.07,0,0,0,12.9,19.2,148.44,148.44,0,0,0,15.8,16.9A108.79,108.79,0,0,0,290,69a100.1,100.1,0,0,0,10.3,5.3l5.3,2.4c1.8.8,3.5,1.7,5.2,2.6a135.74,135.74,0,0,1,36.9,27.8,76.07,76.07,0,0,1,13.2,19l1.1,2.7a14.34,14.34,0,0,1,.7,2.8,7.67,7.67,0,0,1-1,5.7,7.82,7.82,0,0,1-5,2.9,18.83,18.83,0,0,1-5.8.2Z" transform="translate(-90.2 -19.2)"/><path class="cls-6" d="M290.8,82.2c-50.61-38.25-42.38-51.06-42-51.59l.82.58-.41-.29.41.29c-.08.12-7.76,12.76,41.79,50.21Z" transform="translate(-90.2 -19.2)"/><path class="cls-6" d="M292.39,94.89c-33.55-27.22-39.18-39.87-39.55-45a4.31,4.31,0,0,1,.69-3.15l.74.68-.37-.34.37.33a3.77,3.77,0,0,0-.42,2.58c.47,5,6.18,17.34,39.17,44.1Z" transform="translate(-90.2 -19.2)"/><path class="cls-6" d="M305.68,114.58c-12.76-10.66-42.49-36.47-42.83-45.86a1.92,1.92,0,0,1,.4-1.48l.72.69c-.05.07-4.32,6.9,42.35,45.89Z" transform="translate(-90.2 -19.2)"/><path class="cls-6" d="M322,142.27c-6.17,0-12.11-2.21-16.33-15-3.28-10-9.77-17.15-14.07-21.89-3.24-3.58-5.2-5.75-4.16-7.25l.82.56c-.59.86,1.58,3.25,4.08,6,4.36,4.81,10.93,12.07,14.28,22.24,5.09,15.44,12.43,14.75,20.21,14l1.78-.16.08,1-1.77.16C325.24,142.11,323.58,142.27,322,142.27Z" transform="translate(-90.2 -19.2)"/></svg>