<?xml version="1.0" encoding="utf-8"?>
<!-- Generator: Adobe Illustrator 22.0.1, SVG Export Plug-In . SVG Version: 6.00 Build 0)  -->
<svg version="1.1" id="Layer_1" xmlns="http://www.w3.org/2000/svg" xmlns:xlink="http://www.w3.org/1999/xlink" x="0px" y="0px"
	 viewBox="0 0 612 792" style="enable-background:new 0 0 612 792;" xml:space="preserve">
<style type="text/css">
	.st0{fill:#FFFFFF;}
	.st1{fill:#231F20;}
	.st2{fill:#F68720;}
	.st3{font-family:'DINCondensed-Bold';}
	.st4{font-size:103.4478px;}
	.st5{fill:#14A74A;}
	.st6{font-family:'PermanentMarker-Regular';}
	.st7{font-size:37.8979px;}
	.st8{letter-spacing:56;}
	.st9{fill:#010101;}
	.st10{fill:none;stroke:#010101;stroke-miterlimit:10;}
</style>
<g>
	<path class="st0" d="M281.3,258.2c48.8-19,115,7.9,116.1,80.9h126.8v143.6H93.5V339H230c0-31,11.9-53.7,29.3-68.1"/>
	<path class="st1" d="M281.2,258c13-5.2,27.3-7.2,41.4-5.9c14,1.3,27.8,6,39.6,13.8c11.8,7.9,21.5,19,27.7,31.8
		c3.1,6.4,5.4,13.2,7,20.2c1.5,7,2.3,14.1,2.5,21.2l-2-1.9l126.8-0.8l2.7,0l0,2.8l0.2,35.9l0.1,18l0,18l0.1,71.8l0,3.2l-3.3,0
		l-107.7,0.2l-53.8,0.1c-17.9,0.1-35.9,0-53.8-0.1l-215.4-0.4l-3.1,0l0-3.1L91.2,339l0-2.3l2.2,0c22.8,0.2,45.5,0.2,68.3,0.5
		l68.3,0.7L229,339c0.2-12.9,2.3-25.8,7.4-37.7c2.5-5.9,5.7-11.6,9.6-16.7c3.9-5.1,8.3-9.8,13.3-13.8l0.3,0.3
		c-4.9,4.1-9.3,8.7-13,13.9c-3.8,5.1-6.9,10.8-9.3,16.7c-4.9,11.8-6.9,24.6-6.9,37.4l0,0.2l-0.2,0l-136.6,0l0.3-0.3l0,143.6
		l-0.3-0.3l430.8,0l-0.3,0.3l0-143.6l0.3,0.3l-126.8,0l-0.2,0l0-0.3c-0.3-13.9-2.8-28-8.9-40.6c-6-12.6-15.3-23.6-26.8-31.4
		c-11.5-7.9-25.1-12.6-39-14c-13.9-1.5-28.1,0.3-41.1,5.3L281.2,258z"/>
</g>
<text transform="matrix(1 0 0 1 128.189 429.07)" class="st2 st3 st4">PEREGRINE</text>
<g>
	<text transform="matrix(1 0 0 1 167.6309 470.2644)" class="st5 st6 st7 st8">CAFE</text>
</g>
<g>
	<g>
		<path class="st9" d="M351,339c1.9,0.1,3.8-0.1,5.6-0.5c1.8-0.4,3.5-1.3,4.3-2.8c0.9-1.4,0.9-3.2,0.5-4.9c-0.2-0.9-0.5-1.7-0.8-2.6
			l-1.2-2.5c-3.4-6.7-8.2-12.7-13.5-18.1c-2.7-2.7-5.5-5.2-8.3-7.8c-1.4-1.2-2.9-2.4-4.4-3.6l-4.6-3.4c-6.1-4.5-12.6-8.4-19.4-11.9
			c-1.7-0.9-3.3-1.8-5.1-2.6l-5.2-2.4l-5.3-2.6c-1.8-0.8-3.5-1.9-5.2-2.9c-6.8-4.1-13.1-8.9-18.7-14.4c-5.6-5.5-10.8-11.4-15.4-17.7
			l-1.7-2.4l-1.6-2.4c-1.1-1.6-2.1-3.3-3.1-4.9c-1-1.7-2-3.3-2.9-5.1c-0.9-1.7-1.8-3.5-2.6-5.2l0.3-0.1c3.7,6.8,8.1,13.1,12.9,19.2
			c4.8,6,10.1,11.7,15.8,16.9c5.7,5.2,11.9,9.8,18.6,13.7c3.3,2.1,6.8,3.6,10.3,5.3l5.3,2.4c1.8,0.8,3.5,1.7,5.2,2.6
			c13.7,7.2,26.4,16.4,36.9,27.8c5.2,5.7,9.9,11.9,13.2,19l1.1,2.7c0.3,0.9,0.6,1.9,0.7,2.8c0.3,1.9,0.2,4-1,5.7
			c-1.2,1.7-3.1,2.5-5,2.9c-1.9,0.4-3.9,0.4-5.8,0.2L351,339z"/>
	</g>
	<path class="st10" d="M249.2,229.9c0,0-8.9,12.5,41.9,50.9"/>
	<path class="st10" d="M253.9,246.1c0,0-8.4,9.1,38.8,47.4"/>
	<path class="st10" d="M263.6,266.6c0,0-6.2,6,42.4,46.6"/>
	<path class="st10" d="M287.8,297.4c-2,2.9,12.7,11.7,18.3,28.7s14,14.9,22.5,14.2"/>
</g>
</svg>
