<?xml version="1.0" encoding="utf-8"?>
<!-- Generator: Adobe Illustrator 22.1.0, SVG Export Plug-In . SVG Version: 6.00 Build 0)  -->
<svg version="1.1" id="Layer_1" xmlns="http://www.w3.org/2000/svg" xmlns:xlink="http://www.w3.org/1999/xlink" x="0px" y="0px"
	 viewBox="0 0 612 792" style="enable-background:new 0 0 612 792;" xml:space="preserve">
<style type="text/css">
	.st0{fill:#FFF200;}
	.st1{fill:#FFF200;stroke:#000000;stroke-width:4;stroke-miterlimit:10;}
</style>
<g>
	<rect x="170.8" y="208.7" class="st0" width="277.7" height="264.7"/>
	<path d="M450,474.9H169.3V207.2H450V474.9z M172.3,471.9H447V210.2H172.3V471.9z"/>
</g>
<g>
	<path d="M505.8,498.7c-0.4,3.7-1.7,6.6-3.9,8.7c-2.2,2.1-5.1,3.2-8.6,3.2c-1.8,0-3.6-0.3-5.2-0.8c-3.5,2.8-7.6,4.9-12.4,6.4
		c-4.8,1.5-9.3,2.9-13.5,4.4c-5.2-0.2-10.2-0.6-15.2-1.4c-5-0.7-10.1-0.9-15.5-0.6c-1.8-1.3-3.8-2.1-5.8-2.5c-2-0.4-4.1-0.6-6.2-0.7
		c-2.1-0.1-4.1-0.4-6.1-1c-1.9-0.6-3.8-1.8-5.7-3.9h-13.8c-1.3,0-3.2-0.6-5.7-1.8c-2.5-1.2-5.2-2.4-8.3-3.7c-3-1.3-6.3-2.5-9.7-3.6
		c-3.4-1.1-6.6-1.7-9.5-1.7h-1.7c-2-1.7-4.4-2.9-7-3.7c-2.7-0.8-5.4-1.6-8.2-2.2c-2.8-0.6-5.4-1.3-8-2.1c-2.6-0.7-4.8-1.8-6.6-3
		c-1.8-1.3-4-2.6-6.4-4c-2.4-1.4-4.9-2-7.5-1.8c-3.5-2-7.1-3.8-10.9-5.2c-3.8-1.5-7.6-2.9-11.5-4.1l-11.3-4.1
		c-3.7-1.5-7.4-3.2-11.1-5.2c-0.6,0.2-1.2,0.2-1.9,0c-0.7-0.2-1.4-0.3-1.9-0.3c-1.1,0-1.8,0.4-1.9,1.1c-1.3-1.3-2.7-2.4-4.3-3.3
		c-1.6-0.9-3.1-2-4.6-3.3c-0.7,0.2-1.4,0.3-2.1,0.4c-0.6,0.1-1.4,0.1-2.3,0.1c-1.7,0-3.3-0.2-4.8-0.6c-1.6-0.4-3.1-0.8-4.6-1.4
		c-1.7,3.7-2.8,7.8-3.3,12.4c-0.6,4.6-1,9.4-1.2,14.2c-0.3,4.9-0.6,9.8-1,14.6c-0.4,4.9-1.2,9.3-2.5,13.4c0.4,1.5,0.6,2.9,0.6,4.4
		v4.7c0,3.1,0.5,5.6,1.4,7.5c-0.4,1.7-0.7,3.2-1,4.7c-0.3,1.5-0.6,2.9-1,4.4c0.2,2,0.3,3.9,0.4,5.7c0.1,1.7,0.1,3.6,0.1,5.7v4.7
		c0,1.7-0.2,3.3-0.6,5c-1.8,1.1-3.7,2.2-5.5,3.2c-1.8,1-3.7,2.3-5.5,3.7c-1.3-2.4-3.5-3.8-6.6-4.1c-0.7,0.9-1.2,2.2-1.5,3.7
		c-0.3,1.6-1.2,2.3-2.6,2.3c-2.6-2-4.7-3.7-6.4-5c-1.7-1.3-3.5-3.2-5.5-5.8c-0.2-0.4-0.3-0.8-0.3-1.4c0-0.9,0.2-1.8,0.6-2.5
		c0.4-0.7,0.6-1.5,0.6-2.2c0-2.2-0.3-4.1-0.8-5.8c-0.4-2.4-0.6-4.7-0.8-7c-0.2-2.3-0.3-4.6-0.3-6.8c0-3.1,0.2-6.2,0.7-9.1
		c0.5-2.9,1.3-6,2.6-9.1c2-5.3,3.5-11,4.3-16.9c0.8-5.9,1.4-11.8,1.8-17.8c0.4-6,0.6-12,0.7-18.1c0.1-6.1,0.4-11.9,1-17.4
		c-1.3-2.9-2.8-5.3-4.6-7c-1.8-1.7-2.6-4.6-2.6-8.4c0-3.5,1.1-6.2,3.3-8.2c2.2-1.9,4.1-4.3,5.8-7c-0.4-1.1-0.1-1.8,0.8-2.2l3.3-29
		c0.2-2,0.5-4.2,1-6.6c0.5-2.4,0.8-4.6,1-6.6c0.4-4.2,0.6-8.4,0.6-12.4c0-4,0.2-8.1,0.6-12.2c0.9-9,1.8-18,2.6-26.8
		c0.8-8.8,1.2-17.7,1.2-26.5c0-4.2-0.1-8.5-0.4-12.7c-0.3-4.2-0.9-8.5-1.8-12.7c-3.1,0.9-6.6,1.9-10.4,2.9c-3.8,1-7,2.7-9.5,5.1
		h-2.2c-4.8,0-9.3,0.9-13.4,2.8c-4.1,1.8-8.3,3.6-12.6,5.2c-1.8,0.9-3.7,1.5-5.5,1.8c-1.8,0.3-3.8,0.7-5.8,1.2
		c-0.9,0.2-1.9,0.7-3,1.7c-1.1,0.9-2.1,1.6-3,1.9l-4.7,1.1c-1.3,0.4-1.8,1.2-1.7,2.5c0.2,1.3-0.3,2.1-1.4,2.5
		c-0.9,0.9-2.2,1.3-3.9,1.2c-1.7-0.1-2.9-0.1-3.9-0.1h-1.1c-4.6,3.3-9.1,6.1-13.4,8.4c-4.3,2.3-9.4,3.8-15.3,4.6l-6.1,3.9
		c-2,1.3-4.3,1.9-6.9,1.9c-2,0-3.7-0.4-5-1.1c-1.5-2.2-2.6-4.7-3.5-7.5c-0.8-2.8-2.3-5.2-4.3-7.2c0.9-0.9,1.5-2.2,1.8-3.7
		c0.3-1.6,0.6-3,1-4.3c5.5-2.4,11.1-4.7,16.7-6.9c5.6-2.2,11-4.9,16.2-8c0.6,0.2,1.4,0.3,2.5,0.3c1.8,0,3.5-0.3,5-0.8
		c1.5-0.6,2.9-1.2,4.4-1.9c1.5-0.7,2.9-1.4,4.4-1.9c1.5-0.6,3.2-0.7,5.2-0.6c6.3-3.5,12.9-6.4,19.9-8.6c7-2.2,13.6-5.2,19.9-9.1
		c0.9,0,1.7,0.2,2.3,0.6c0.6,0.4,1.3,0.6,2.1,0.6c0.7,0,1.2-0.1,1.4-0.3c1.1-1.5,2.6-2.5,4.4-3.2c1.8-0.6,3.7-1.2,5.7-1.7
		c1.9-0.5,3.8-1.1,5.5-1.9c1.7-0.8,2.9-2.2,3.5-4c0.9,0.7,2.3,1.1,4.1,1.1c3.1,0,6-0.6,8.7-1.9c2.7-1.3,5.6-1.9,8.7-1.9
		c0.7,0,1.4,0.1,2.1,0.4c0.6,0.3,1.3,0.4,2.1,0.4c1.5,0,2.3-0.5,2.3-1.4c0.1-0.9,0.6-1.7,1.5-2.5c11.2-2,22.4-3.9,33.6-5.5
		c11.1-1.7,22.4-2.5,33.8-2.5c1.7-1.1,3.5-1.7,5.5-1.7c2,0,3.9,0.6,5.5,1.7c3.1-0.4,6.3-0.6,9.4-0.8c3.1-0.2,6.3-0.3,9.4-0.3
		c7.2,0,14.5,0.5,22.1,1.4c7.6,0.9,15.1,2.3,22.5,4.3c7.5,1.9,14.6,4.5,21.4,7.7c6.8,3.2,13.2,7,19.1,11.5c0.6,1.7,1.3,3.3,2.2,5
		c0.9,1.7,2.1,2.9,3.6,3.9c0,0.4,0,0.6-0.1,0.8c-0.1,0.2-0.1,0.5-0.1,0.8c0,2,0.6,4,1.8,5.8c1.2,1.8,1.8,4.1,1.8,6.6
		c0,2.6-0.4,5.2-1.2,7.7c-0.8,2.6-1.2,5.2-1,7.7c-2,2.9-3.7,5.6-5.1,8c-1.4,2.4-2.3,5.4-2.6,9.1c-3.3,3.3-6.3,7-8.8,10.9
		c-2.6,4-5.2,7.8-7.9,11.6c-2.7,3.8-5.7,7.2-9,10.4c-3.3,3.1-7.3,5.6-11.9,7.5c-0.2,1.8-0.9,3.9-2.2,6.1h-5.8
		c-0.6,1.5-1.5,2.6-2.8,3.3l-3.9,2.2c-1.3,0.7-2.3,1.7-3.2,2.8c-0.8,1.1-1.2,2.7-1.2,4.7c-0.4-0.2-0.8-0.3-1.4-0.3
		c-1.8,0-4,0.9-6.5,2.8c-2.5,1.8-4.5,3.3-5.9,4.4c-3.1,2.2-6.3,4.2-9.5,6.1c-3.2,1.8-6,4.4-8.4,7.7c-7.4,3.1-14.4,6.8-21,10.9
		c-6.6,4.1-13.8,7.4-21.5,9.8c-2.9,3.1-6.4,5.6-10.4,7.3c-4,1.8-7.8,3.6-11.5,5.7v0.8c0,1.5,0.6,2.9,1.7,4.3
		c1.1,1.4,2.4,2.6,3.9,3.6c1.5,1,3.1,1.7,4.8,2.1c1.7,0.4,3.3,0.4,4.6,0c3.7,3.3,7.9,6,12.7,8c4.8,2,9.8,3.9,14.9,5.5
		c5.2,1.7,10.2,3.4,15.2,5.2c5,1.8,9.6,4.1,13.8,6.9h6.6c4.2,3.7,9.3,6.4,15.1,8.3c5.8,1.8,11.4,3.5,16.7,5c2.2,2,5,3.5,8.4,4.6
		c3.4,1,6.7,1.5,9.8,1.5h1.7c0.7,0,1.4-0.1,1.9-0.3v0.6c0,0.9,0.3,1.5,0.8,1.8s1.1,0.5,1.8,0.6c0.6,0.1,1.3,0.3,1.9,0.6
		c0.6,0.3,1.1,0.7,1.5,1.2h2.8c3.9,0,7.6,0.8,11.1,2.3c3.5,1.6,7.2,2.3,11.1,2.3c1.7,0,2.9-0.2,3.9-0.6c1.1,0.4,1.9,1.1,2.5,2.2
		s1.3,2,2.2,2.8c1.3-0.2,2.5-0.3,3.6-0.4c1.1-0.1,2.2-0.1,3.3-0.1c4.1,0,7.8,0.5,11.3,1.4c3.5,0.9,7.1,2.3,10.8,4.1
		c5.9-2.6,11.7-4.7,17.4-6.4c5.7-1.7,11.8-2.5,18.2-2.5v0.6c0,2.2,0.6,4.3,1.8,6.2C503.8,494.7,504.9,496.7,505.8,498.7z M400,278.3
		c0-2.2-0.4-4-1.2-5.2c-0.8-1.3-1.9-2.4-3.2-3.5c-1.3-1-2.6-2-4-2.9c-1.4-0.9-2.6-2.1-3.7-3.6c-4.8-1.5-9.5-3.1-14.1-5
		c-4.6-1.8-9.3-3.4-14.1-4.7c-2.4-0.6-4.8-1.1-7.2-1.5c-2.4-0.5-4.8-0.7-7.2-0.7h-6.1c-1.1-0.2-2.3-0.4-3.5-0.7
		c-1.2-0.3-2.3-0.5-3.5-0.7c-2.6-0.4-5.1-0.6-7.6-0.8c-2.5-0.2-5-0.3-7.6-0.3c-4.8,0-9.6,0.2-14.4,0.6l-14.4,1.1
		c-2,0.2-4.1,0.3-6.4,0.3c-2.2,0-4.2,0.2-6.1,0.6c-0.9,0.2-2.2,0.6-3.9,1.2c-1.7,0.6-3.4,1.3-5.2,1.9c-1.8,0.6-3.6,1.3-5.4,2.1
		c-1.8,0.7-3.3,1.3-4.6,1.7c0.2,1.3,0.3,2.6,0.3,3.9v3.6c0,2.8-0.1,5.5-0.3,8.3c-0.2,2.8-0.6,5.5-1.1,8.3c-0.2,1.1-0.5,2.2-0.8,3.3
		c-0.4,1.1-0.6,2.2-0.8,3.3c-0.4,1.7-0.6,3.5-0.6,5.5v5.2c-0.4,4.2-0.6,8.4-0.8,12.4c-0.2,4.1-0.5,8.2-0.8,12.4
		c-1.1,12.2-2.3,24.2-3.5,36.2c-1.2,12-2,24-2.3,36.2c6.1-1.3,11.9-3.2,17.4-5.8c5.5-2.6,11-5.4,16.3-8.4c5.3-3,10.7-6,16-9
		c5.3-2.9,11-5.4,16.9-7.5c1.5-2,3.3-3.7,5.4-5c2.1-1.3,3.9-2.9,5.4-5c1.8,0,3.2-0.4,4.1-1.2c0.9-0.8,2.1-1.4,3.6-1.8
		c8.8-7.7,17.9-15,27.1-21.8c9.2-6.8,18.1-14.1,26.5-21.8c0.7-2.6,2-5.1,3.7-7.6c1.7-2.5,3.5-5,5.1-7.6c1.7-2.6,3.1-5.2,4.4-7.7
		C399.3,284,400,281.2,400,278.3z"/>
</g>
<g>
	<path class="st1" d="M357.2,310.1c-1.1,0.7-2.3,1.1-3.6,1.3c-1.3,0.1-2.6,0.3-3.9,0.5c-1.4,0.2-2.6,0.5-3.7,1
		c-1.1,0.4-2,1.2-2.6,2.3c-1.4-1.4-3-2.6-4.7-3.6c-1.7-1-3.4-2.1-5.1-3.2c-1.4,0.4-2.8,1-4.3,1.7c-1.4,0.7-2.8,1.1-4.3,1.1
		c-1,0-2-0.4-3-1.1c-1.1,0.9-2.5,1.5-3.9,2c-1.5,0.5-3.1,1-4.7,1.4c-1.6,0.4-3.1,1-4.5,1.7c-1.4,0.7-2.3,1.8-2.9,3.2
		c-0.3-0.7-1-0.9-2-0.6c-1.1,0.3-1.7-0.1-1.8-1.1c-4.6,1.6-9.2,2.9-13.9,4.1c-4.7,1.1-9.4,2.3-14.1,3.6c-4.7,1.3-9.3,2.7-13.9,4.3
		c-4.6,1.6-9,3.5-13.2,5.8c-0.1,0.1-0.2,0.4-0.2,0.6c0,1.4,0.2,2.8,0.6,4.1c0.4,1.3,0.8,2.5,1.1,3.6c-2.6,8.7-4.3,17.5-5.1,26.5
		c-0.9,9-2,17.8-3.4,26.5v0.9c0,0.7,0.3,1.2,0.9,1.6c0.6,0.4,0.9,1,0.9,1.8l-0.2,0.4c-0.7,0.4-1.2,1-1.5,1.8
		c-0.3,0.8-0.4,1.6-0.4,2.5c0,0.6,0.1,1.4,0.4,2.6c-2.4,8.1-4,16.4-4.8,24.8c-0.8,8.4-1.7,16.8-2.9,25.2l-1.9,14.1
		c-0.3,0.9-0.5,1.7-0.7,2.5c-0.2,0.8-0.3,1.6-0.3,2.5c0,4.6,0.3,9,1,13.3c0.6,4.3,0.8,8.8,0.5,13.3c1.3,2,1.9,3.9,1.9,5.8
		c0,0.7,0,1.4-0.1,2.1c-0.1,0.7-0.2,1.4-0.3,2.1c1.8,1.8,4,3.2,6.5,3.9c2.5,0.8,4.7,2,6.7,3.7v0.9c0,1.4-0.2,2.8-0.6,4.2
		c-0.4,1.4-0.8,2.7-1.1,4.2c-0.3,1.1-0.6,2.8-1,4.9c-0.4,2.1-0.8,3.6-1.4,4.3c-0.7,1-1.7,1.9-3.1,2.7c-1.4,0.8-2.7,1.2-3.9,1.2
		c-0.4,0-1-0.2-1.8-0.6c-0.8-0.4-1.4-0.8-1.8-1.1c-0.7,0-1.6,0.4-2.8,1.1c-1.1,0.7-2.3,1.1-3.4,1.1c-0.6,0-1.1,0-1.5-0.1
		c-0.4-0.1-0.9-0.2-1.5-0.5c-0.6-1.4-1.4-2.7-2.5-3.7c-1.1-1.1-2.3-2.1-3.7-3.1c0.1-2-0.2-3.5-1.1-4.5c-0.9-1-1.7-2.3-2.6-3.8
		c-0.3-2-0.5-4.3-0.7-6.8c-0.2-2.6-1.3-4.4-3.3-5.5c0.7-1,1.1-2.3,1.1-4.1c0-0.7-0.1-1.5-0.3-2.3s-0.7-1.5-1.4-1.9v-0.4
		c-0.1-0.7,0.1-1.2,0.7-1.6c0.6-0.4,1-0.9,1-1.6v-0.9c-1-4.6-1.5-9.3-1.5-14.3c0-4.7,0.1-9.4,0.4-14c0.3-4.6,0.3-9.3,0-14
		c0.9-0.7,1.5-1.8,2-3.4c0.5-1.6,0.9-3.3,1.2-5.1c0.3-1.8,0.5-3.7,0.5-5.4c0.1-1.8,0.2-3.2,0.3-4.4c0.7-8.1,1.8-16.1,3.4-24
		c1.6-7.9,2.5-16,2.8-24.2c0.7-1.1,1.1-2.6,1.3-4.5c0.1-1.8,0.2-3.8,0.2-5.9c0-2.1,0.1-4.1,0.4-6.1c0.3-2,0.9-3.7,1.7-5.1
		c0-4,0.4-8,1.1-12.1c0.7-4.1,1.1-8.1,1.1-12.3c0-2-0.2-4.1-0.6-6.2c-1.4-0.6-2.7-0.9-3.8-0.9c-1.6,0-3.2,0.3-4.8,1
		c-1.6,0.6-2.8,1.6-3.5,2.9c-3.1,0.1-6.2,0.6-9.2,1.5c-3,0.9-6,1.3-9,1.3h-2.1c-0.6,0-1.2-0.1-1.9-0.2c-1,0.4-2,0.8-3.1,1.1
		c-1.1,0.3-1.5,1.1-1.4,2.6c-4.4,0.4-8.7,1.4-12.9,2.8c-4.2,1.4-8.4,3-12.5,4.6c-4.1,1.6-8.3,3.2-12.5,4.6
		c-4.2,1.4-8.5,2.3-12.9,2.8c-1.6,0.7-2.6,2.2-3,4.5c-3.1-0.3-5.8-1.1-7.9-2.3s-4.6-2.5-7.5-3.6c-0.9-3-1.3-5.8-1.3-8.5
		c0-3.6,0.7-7,2.1-10.2c1.4-3.3,3.7-5.7,6.8-7.3c0.7,0.1,1.4,0.2,1.9,0.3c0.6,0.1,1.2,0.1,1.9,0.1c2.3,0,4.6-0.4,6.8-1.3
		c2.3-0.9,4.6-1.3,7-1.3c0.7,0,1.5,0.2,2.3,0.6c1-0.6,2.2-1,3.7-1.4c1.5-0.4,2.9-0.7,4.3-1.1c1.4-0.4,2.6-0.9,3.7-1.6
		c1.1-0.7,1.8-1.7,2.1-3c0.7,0.6,1.5,0.9,2.3,1.1c0.9,0.1,1.7,0.2,2.6,0.2c1.8,0,3.8-0.4,5.8-1.1c2-0.7,3.6-1.8,4.7-3.4
		c1,1.1,2.4,1.7,4.3,1.7c2,0,3.9-0.5,5.9-1.6c1.9-1.1,3.8-1.6,5.7-1.6c1.4,0,2.5,0.5,3.2,1.5c1.6-1.3,3.4-2.3,5.5-3
		c2.1-0.7,4.3-1.4,6.5-1.9c2.2-0.6,4.3-1.2,6.2-1.9c1.9-0.7,3.4-1.7,4.6-3c0.7,0.1,1.8,0.2,3.4,0.2c2.4,0,4.7-0.3,6.9-1
		c2.2-0.6,4.4-1.2,6.7-1.8l4.5-0.4c1.1-0.1,2.2-0.5,3.1-1.1c0.9-0.6,1.9-1.1,2.9-1.5c1-0.4,2-0.8,3.1-1.1c1.1-0.3,2.4-0.4,3.9-0.2
		c3.4-1.8,7-3.3,10.9-4.3c3.8-1,7.8-1.9,11.7-2.7c4-0.8,7.9-1.7,11.7-2.8c3.8-1.1,7.5-2.7,10.9-4.8h0.6c2.8,0,5.7-0.5,8.4-1.5
		c2.8-1,5.4-2.3,7.8-4.1c0.4,0.1,0.9,0.2,1.3,0.2h1.5c4,0,7.9-0.6,11.6-1.7c3.8-1.1,7.7-1.7,11.8-1.7c2.4,0,4.3,0.3,5.8,1
		c1.4,0.6,2.7,1.4,3.8,2.3c1.1,0.9,2.3,1.8,3.6,2.7c1.3,0.9,2.9,1.5,4.9,1.9c1.3,2.4,1.9,5,1.9,7.8S357,307.2,357.2,310.1z"/>
</g>
<g>
	<path d="M294,194.6c-0.1,0.6-0.3,1-0.7,1.3c-0.4,0.3-0.8,0.4-1.4,0.4c-0.3,0-0.6-0.1-0.8-0.2c-0.6,0.4-1.3,0.7-2,0.9
		c-0.8,0.2-1.5,0.4-2.2,0.6c-0.8-0.1-1.6-0.2-2.4-0.4c-0.8-0.2-1.6-0.2-2.4-0.2c-0.3-0.2-0.6-0.4-0.9-0.4c-0.3-0.1-0.6-0.1-1-0.2
		c-0.3,0-0.6-0.1-0.9-0.2c-0.3-0.1-0.6-0.3-0.9-0.7l-2.2-0.1c-0.2,0-0.5-0.1-0.9-0.3c-0.4-0.2-0.8-0.4-1.3-0.7
		c-0.5-0.2-1-0.5-1.5-0.7c-0.5-0.2-1-0.3-1.5-0.4l-0.3,0c-0.3-0.3-0.7-0.5-1.1-0.7c-0.4-0.2-0.8-0.3-1.3-0.4
		c-0.4-0.1-0.8-0.3-1.2-0.4c-0.4-0.1-0.7-0.3-1-0.5c-0.3-0.2-0.6-0.5-1-0.7c-0.4-0.2-0.7-0.4-1.2-0.4c-0.5-0.4-1.1-0.7-1.7-0.9
		c-0.6-0.3-1.2-0.5-1.8-0.8l-1.7-0.8c-0.6-0.3-1.1-0.6-1.7-0.9c-0.1,0-0.2,0-0.3,0c-0.1,0-0.2-0.1-0.3-0.1c-0.2,0-0.3,0-0.3,0.2
		c-0.2-0.2-0.4-0.4-0.6-0.6c-0.2-0.2-0.5-0.4-0.7-0.6c-0.1,0-0.2,0-0.3,0c-0.1,0-0.2,0-0.4,0c-0.3,0-0.5-0.1-0.8-0.1
		c-0.2-0.1-0.5-0.2-0.7-0.3c-0.3,0.6-0.5,1.2-0.6,1.9c-0.1,0.7-0.2,1.5-0.3,2.2c-0.1,0.8-0.2,1.5-0.3,2.3c-0.1,0.8-0.3,1.5-0.5,2.1
		c0,0.2,0.1,0.5,0,0.7l0,0.7c0,0.5,0,0.9,0.1,1.2c-0.1,0.3-0.1,0.5-0.2,0.7c-0.1,0.2-0.1,0.5-0.2,0.7c0,0.3,0,0.6,0,0.9s0,0.6,0,0.9
		l0,0.7c0,0.3-0.1,0.5-0.1,0.8c-0.3,0.2-0.6,0.3-0.9,0.4c-0.3,0.1-0.6,0.3-0.9,0.5c-0.2-0.4-0.5-0.6-1-0.7c-0.1,0.1-0.2,0.3-0.3,0.6
		c-0.1,0.2-0.2,0.4-0.4,0.3c-0.4-0.3-0.7-0.6-1-0.8c-0.2-0.2-0.5-0.5-0.8-1c0-0.1,0-0.1,0-0.2c0-0.1,0-0.3,0.1-0.4
		c0.1-0.1,0.1-0.2,0.1-0.3c0-0.3,0-0.7-0.1-0.9c0-0.4-0.1-0.8-0.1-1.1c0-0.4,0-0.7,0-1.1c0-0.5,0.1-1,0.2-1.4
		c0.1-0.5,0.3-0.9,0.5-1.4c0.4-0.8,0.7-1.7,0.8-2.6c0.2-0.9,0.3-1.8,0.5-2.8c0.1-0.9,0.2-1.9,0.3-2.8s0.2-1.9,0.3-2.7
		c-0.2-0.5-0.4-0.9-0.6-1.2c-0.3-0.3-0.4-0.7-0.3-1.4c0-0.6,0.2-1,0.6-1.3c0.4-0.3,0.7-0.6,1-1.1c0-0.2,0-0.3,0.2-0.3l0.8-4.5
		c0-0.3,0.1-0.7,0.2-1c0.1-0.4,0.2-0.7,0.2-1c0.1-0.7,0.2-1.3,0.2-2c0-0.6,0.1-1.3,0.2-1.9c0.2-1.4,0.5-2.8,0.7-4.2
		c0.2-1.4,0.4-2.8,0.5-4.2c0-0.7,0.1-1.3,0.1-2c0-0.7-0.1-1.3-0.2-2c-0.5,0.1-1.1,0.2-1.7,0.4c-0.6,0.1-1.1,0.4-1.6,0.7l-0.3,0
		c-0.8,0-1.5,0.1-2.1,0.3c-0.7,0.2-1.3,0.5-2,0.7c-0.3,0.1-0.6,0.2-0.9,0.2c-0.3,0-0.6,0.1-0.9,0.1c-0.1,0-0.3,0.1-0.5,0.2
		s-0.3,0.2-0.5,0.3l-0.8,0.1c-0.2,0-0.3,0.2-0.3,0.4c0,0.2-0.1,0.3-0.2,0.4c-0.2,0.1-0.4,0.2-0.6,0.2c-0.3,0-0.5-0.1-0.6-0.1l-0.2,0
		c-0.8,0.5-1.5,0.9-2.2,1.2c-0.7,0.3-1.5,0.5-2.5,0.6l-1,0.5c-0.3,0.2-0.7,0.3-1.1,0.2c-0.3,0-0.6-0.1-0.8-0.2
		c-0.2-0.4-0.4-0.8-0.5-1.2c-0.1-0.4-0.3-0.8-0.6-1.2c0.2-0.1,0.3-0.3,0.3-0.6c0.1-0.2,0.1-0.5,0.2-0.7c0.9-0.3,1.8-0.6,2.7-0.9
		c0.9-0.3,1.8-0.7,2.6-1.1c0.1,0,0.2,0.1,0.4,0.1c0.3,0,0.6,0,0.8-0.1c0.2-0.1,0.5-0.2,0.7-0.3c0.2-0.1,0.5-0.2,0.7-0.3
		c0.2-0.1,0.5-0.1,0.8,0c1-0.5,2.1-0.9,3.2-1.1c1.1-0.3,2.2-0.7,3.2-1.2c0.1,0,0.3,0,0.4,0.1c0.1,0.1,0.2,0.1,0.3,0.1
		c0.1,0,0.2,0,0.2,0c0.2-0.2,0.4-0.4,0.7-0.5c0.3-0.1,0.6-0.2,0.9-0.2c0.3-0.1,0.6-0.1,0.9-0.2c0.3-0.1,0.5-0.3,0.6-0.6
		c0.1,0.1,0.4,0.2,0.6,0.2c0.5,0,1,0,1.4-0.2c0.4-0.2,0.9-0.2,1.4-0.2c0.1,0,0.2,0,0.3,0.1c0.1,0,0.2,0.1,0.3,0.1
		c0.2,0,0.4,0,0.4-0.2c0-0.1,0.1-0.3,0.3-0.4c1.8-0.2,3.6-0.4,5.3-0.5c1.8-0.1,3.6-0.2,5.4-0.1c0.3-0.2,0.6-0.2,0.9-0.2
		s0.6,0.1,0.9,0.3c0.5,0,1,0,1.5,0c0.5,0,1,0,1.5,0.1c1.1,0.1,2.3,0.2,3.5,0.4c1.2,0.2,2.3,0.5,3.5,0.9c1.2,0.4,2.3,0.9,3.3,1.4
		c1,0.6,2,1.2,2.9,2c0.1,0.3,0.2,0.5,0.3,0.8c0.1,0.3,0.3,0.5,0.5,0.6c0,0.1,0,0.1,0,0.1c0,0,0,0.1,0,0.1c0,0.3,0.1,0.6,0.2,0.9
		c0.2,0.3,0.2,0.7,0.2,1.1c0,0.4-0.1,0.8-0.3,1.2s-0.2,0.8-0.2,1.2c-0.3,0.4-0.6,0.8-0.9,1.2c-0.2,0.4-0.4,0.8-0.5,1.4
		c-0.6,0.5-1.1,1-1.5,1.6c-0.4,0.6-0.9,1.2-1.4,1.7c-0.5,0.6-1,1.1-1.5,1.5c-0.6,0.5-1.2,0.8-1.9,1.1c0,0.3-0.2,0.6-0.4,0.9
		l-0.9-0.1c-0.1,0.2-0.3,0.4-0.5,0.5l-0.6,0.3c-0.2,0.1-0.4,0.2-0.5,0.4c-0.1,0.2-0.2,0.4-0.2,0.7c-0.1,0-0.1-0.1-0.2-0.1
		c-0.3,0-0.6,0.1-1.1,0.4c-0.4,0.3-0.7,0.5-1,0.6c-0.5,0.3-1,0.6-1.6,0.9c-0.5,0.3-1,0.6-1.4,1.1c-1.2,0.4-2.3,0.9-3.4,1.5
		c-1.1,0.6-2.2,1-3.5,1.3c-0.5,0.5-1.1,0.8-1.7,1c-0.6,0.2-1.3,0.5-1.9,0.8l0,0.1c0,0.2,0.1,0.5,0.2,0.7c0.2,0.2,0.3,0.4,0.6,0.6
		c0.2,0.2,0.5,0.3,0.7,0.4c0.3,0.1,0.5,0.1,0.7,0c0.5,0.6,1.2,1,1.9,1.4c0.7,0.4,1.5,0.7,2.3,1c0.8,0.3,1.6,0.6,2.3,1
		c0.8,0.3,1.5,0.7,2.1,1.2l1,0.1c0.6,0.6,1.4,1.1,2.3,1.5c0.9,0.3,1.8,0.7,2.6,1c0.3,0.3,0.8,0.6,1.3,0.8c0.5,0.2,1,0.3,1.5,0.3
		l0.3,0c0.1,0,0.2,0,0.3,0l0,0.1c0,0.1,0,0.2,0.1,0.3c0.1,0,0.2,0.1,0.3,0.1c0.1,0,0.2,0.1,0.3,0.1c0.1,0,0.2,0.1,0.2,0.2l0.4,0
		c0.6,0,1.2,0.2,1.7,0.5c0.5,0.3,1.1,0.4,1.7,0.5c0.3,0,0.5,0,0.6,0c0.2,0.1,0.3,0.2,0.4,0.4c0.1,0.2,0.2,0.3,0.3,0.5
		c0.2,0,0.4,0,0.6,0c0.2,0,0.3,0,0.5,0c0.6,0,1.2,0.2,1.8,0.3c0.5,0.2,1.1,0.4,1.7,0.8c1-0.3,1.9-0.6,2.8-0.8
		c0.9-0.2,1.9-0.3,2.9-0.2l0,0.1c0,0.3,0.1,0.7,0.2,1C293.8,193.9,293.9,194.3,294,194.6z M279.6,158.8c0-0.3,0-0.6-0.1-0.8
		c-0.1-0.2-0.3-0.4-0.5-0.6c-0.2-0.2-0.4-0.3-0.6-0.5c-0.2-0.2-0.4-0.4-0.6-0.6c-0.7-0.3-1.5-0.6-2.2-0.9c-0.7-0.3-1.4-0.6-2.2-0.9
		c-0.4-0.1-0.7-0.2-1.1-0.3c-0.4-0.1-0.7-0.2-1.1-0.2l-1-0.1c-0.2,0-0.4-0.1-0.5-0.1c-0.2-0.1-0.4-0.1-0.5-0.1
		c-0.4-0.1-0.8-0.2-1.2-0.2c-0.4-0.1-0.8-0.1-1.2-0.1c-0.8,0-1.5-0.1-2.3-0.1l-2.3,0c-0.3,0-0.7,0-1,0c-0.3,0-0.7,0-1,0
		c-0.1,0-0.4,0.1-0.6,0.2c-0.3,0.1-0.5,0.2-0.8,0.3c-0.3,0.1-0.6,0.2-0.9,0.3c-0.3,0.1-0.5,0.2-0.7,0.2c0,0.2,0,0.4,0,0.6l0,0.6
		c0,0.4-0.1,0.9-0.1,1.3c-0.1,0.4-0.1,0.9-0.3,1.3c0,0.2-0.1,0.3-0.2,0.5c-0.1,0.2-0.1,0.3-0.2,0.5c-0.1,0.3-0.1,0.5-0.1,0.9
		l-0.1,0.8c-0.1,0.7-0.2,1.3-0.3,1.9c-0.1,0.6-0.2,1.3-0.3,1.9c-0.3,1.9-0.6,3.8-0.9,5.7c-0.3,1.9-0.6,3.8-0.7,5.7
		c1-0.1,1.9-0.4,2.8-0.7c0.9-0.4,1.8-0.7,2.7-1.2c0.9-0.4,1.7-0.8,2.6-1.3c0.9-0.4,1.8-0.7,2.7-1c0.3-0.3,0.6-0.5,0.9-0.7
		c0.3-0.2,0.6-0.4,0.9-0.7c0.3,0,0.5,0,0.7-0.2c0.2-0.1,0.3-0.2,0.6-0.2c1.5-1.1,3-2.2,4.5-3.2c1.5-1,3-2,4.4-3.2
		c0.1-0.4,0.4-0.8,0.7-1.2c0.3-0.4,0.6-0.8,0.9-1.1c0.3-0.4,0.5-0.8,0.8-1.2C279.4,159.7,279.6,159.3,279.6,158.8z"/>
	<path d="M313.1,190.8c-0.1,0.4-0.3,0.7-0.6,0.9c-0.3,0.2-0.6,0.4-1,0.5c-0.4,0.1-0.8,0.2-1.2,0.2c-0.4,0-0.8,0-1.1,0
		c-0.1,0-0.3,0-0.4,0s-0.3,0-0.4,0s-0.2,0.1-0.2,0.2c0,0.1-0.1,0.2-0.2,0.3c-0.1-0.1-0.3-0.1-0.4-0.2c-0.1,0-0.3-0.1-0.4-0.1
		c-0.2,0-0.4,0-0.6,0c-0.2,0-0.4,0-0.5,0c-0.2,0-0.4-0.1-0.5-0.1c-0.1-0.1-0.2-0.1-0.2-0.2s-0.1-0.2-0.2-0.3
		c-0.1-0.1-0.2-0.2-0.3-0.2c-0.2-0.1-0.4-0.1-0.5-0.1c-0.1,0.1-0.3,0-0.6-0.3c-0.3-0.3-0.6-0.7-0.8-1.1c-0.2-0.4-0.4-0.9-0.6-1.4
		c-0.2-0.5-0.4-1-0.7-1.4c-0.2-0.5-0.5-0.9-0.8-1.3l-0.3,0c-0.5,0-0.9,0.2-1.1,0.6c-0.1-0.1-0.3-0.2-0.4-0.4
		c-0.1-0.1-0.3-0.3-0.5-0.4c-0.7,0.2-1.4,0.3-2.1,0.4c-0.7,0.1-1.5,0.1-2.2,0.1l-0.6,0c-0.2,0-0.4-0.1-0.6-0.1
		c-0.3,0.1-0.6,0.2-0.8,0.4c-0.2,0.1-0.5,0.2-0.8,0.2c-0.2,0-0.4-0.1-0.6-0.2c-0.2,0-0.3,0.1-0.3,0.2c0,0.1-0.1,0.2-0.3,0.2l-0.4,0
		c-0.4,0-0.8,0-1.2,0s-0.8,0-1.2,0c-0.5,0-1.1-0.1-1.7-0.3c-0.2,0.1-0.3,0.1-0.5,0.1c-0.1,0.1-0.2,0.1-0.3,0.3
		c-0.1,0.1-0.1,0.2-0.2,0.3c-0.1,0.1-0.1,0.2-0.3,0.2s-0.2,0.1-0.4,0c-0.1,0.3-0.2,0.6-0.5,0.8c-0.2,0.2-0.4,0.5-0.4,0.9
		c-0.3,0.2-0.6,0.4-0.8,0.6c-0.2,0.2-0.4,0.5-0.7,0.8c-0.2,0.3-0.4,0.5-0.7,0.8c-0.2,0.2-0.5,0.4-0.8,0.6c-0.2,0.2-0.2,0.4-0.2,0.8
		c-0.3,0.2-0.7,0.4-1.2,0.6c-0.5,0.2-0.9,0.2-1.3,0.2c-0.8-0.1-1.4-0.5-1.7-1.5c0-0.3,0.1-0.6,0.1-0.9c0.1-0.3,0.1-0.6,0.3-0.9
		s0.3-0.6,0.4-0.8c0.2-0.2,0.4-0.4,0.8-0.5c0-0.3-0.1-0.4-0.2-0.6c-0.2-0.1-0.2-0.3-0.2-0.6c0.8-0.3,1.5-0.8,2.1-1.3
		c0.6-0.6,1.2-1.2,1.7-1.8c0.5-0.7,1.1-1.3,1.6-2c0.5-0.7,1.1-1.3,1.8-1.8l0.1-0.9c0.9-0.9,1.6-1.9,1.9-3c0.3,0,0.5-0.2,0.7-0.4
		c0.1-0.2,0.2-0.5,0.2-0.8c0.1,0,0.2-0.1,0.3-0.2c0.1-0.1,0.2-0.2,0.4-0.1c0.3-0.7,0.6-1.3,1-1.9c0.4-0.6,0.7-1.1,1.1-1.7
		c0.4-0.6,0.7-1.2,1-1.8c0.3-0.6,0.5-1.3,0.7-2.1c0.4,0,0.6-0.2,0.7-0.5c0.1-0.4,0.1-0.7,0.2-1c0.5-0.4,0.8-0.8,1.1-1.4
		c0.3-0.5,0.5-1.1,0.7-1.7c0.2-0.6,0.4-1.2,0.7-1.7c0.3-0.6,0.6-1.1,1-1.5l0-0.1c0-0.1,0-0.2-0.2-0.3s-0.2-0.1-0.2-0.3
		c0,0,0-0.1,0-0.1c0.4-0.1,0.6-0.3,0.8-0.7c0.2-0.3,0.5-0.5,0.8-0.7c0.6,0.5,1.1,0.9,1.6,1c0.5,0.1,1.1,0.2,1.8,0.4
		c0.3,0.4,0.5,0.9,0.5,1.5c0,0.6,0.1,1.1,0.2,1.7c0.2,0.9,0.4,1.9,0.6,2.8c0.2,0.9,0.4,1.8,0.5,2.8c0.1,0.6,0.2,1.1,0.4,1.6
		c0.2,0.5,0.3,1,0.4,1.6c0,0.4,0,0.9-0.1,1.4c-0.1,0.5-0.1,1,0.1,1.3l0.3,0.7c0.1,0.3,0.2,0.7,0.3,1c0.1,0.4,0.2,0.7,0.2,1.1
		c0.2,0.9,0.3,1.8,0.5,2.8s0.4,1.9,0.7,2.8c0.1,0.3,0.3,0.5,0.6,0.7c0.3,0.1,0.6,0.2,1,0.3c0.4,0.1,0.7,0.1,1.1,0.1
		c0.4,0,0.7,0,0.9,0l0.4,0c0.2,0,0.3,0.1,0.5,0.1c0.1,0.2,0.1,0.4,0.1,0.6c0,0.3-0.2,0.6-0.4,0.8s-0.4,0.4-0.4,0.7
		c0,0.1,0,0.3,0.1,0.5c-0.1,0-0.3-0.1-0.5-0.1c-0.7,0-1.3,0-2,0.2c0.2,0.5,0.5,0.9,0.9,1.3c0.4,0.4,0.8,0.7,1.2,1
		c0.3-0.2,0.6-0.3,0.9-0.3c0.3,0,0.7,0.1,1,0.3c0.3,0.2,0.6,0.3,1,0.3c0.3,0,0.5,0,0.6-0.1c0.2,0.3,0.4,0.6,0.5,0.8
		C312.7,190.3,312.8,190.6,313.1,190.8z M299.9,183c0-0.5-0.1-0.9-0.2-1.1c-0.1-0.2-0.2-0.5-0.3-0.8c-0.1-0.4-0.1-0.9-0.2-1.3
		c0-0.5-0.1-0.9-0.1-1.4c-0.1-1-0.3-2-0.5-3c-0.2-1-0.4-2-0.8-2.9c0.1-0.2,0.2-0.3,0.2-0.5l0-0.1c-0.2-0.3-0.4-0.7-0.5-1.1
		c-0.1-0.4-0.2-0.9-0.2-1.3c-0.1-0.4-0.2-0.8-0.3-1.2c-0.1-0.4-0.4-0.7-0.7-0.9c-0.1,0.2-0.2,0.4-0.2,0.6c0,0.2,0,0.4,0,0.6
		c0,0.2,0,0.4,0,0.6c-0.3,0.1-0.5,0.3-0.7,0.6c-0.2,0.3-0.4,0.5-0.7,0.7c-0.3,0.9-0.7,1.8-1.2,2.6s-1,1.6-1.5,2.4s-1,1.6-1.5,2.4
		c-0.5,0.8-0.9,1.6-1.2,2.5c-0.4,0.2-0.7,0.6-0.8,1c-0.2,0.4-0.2,0.8-0.3,1.2c0.3,0.2,0.5,0.3,0.9,0.3c0.3,0,0.7,0.1,1,0.1
		c0.3,0,0.6,0.1,0.9,0.1c0.3,0.1,0.5,0.2,0.8,0.5c0.4-0.1,0.8-0.1,1.3-0.2c0.5,0,0.8-0.1,1.1-0.3c0.6,0.2,1.2,0.4,1.9,0.4
		c0.3,0,0.7,0,1,0c0.3,0,0.7-0.1,1-0.2c0.3,0.1,0.5,0.2,0.6,0.3c0.1,0.1,0.4,0.2,0.6,0.2c0.2-0.1,0.2-0.2,0.3-0.4
		C299.7,183.2,299.8,183.1,299.9,183z"/>
	<path d="M367.8,189.9c-0.1,0.4-0.3,0.8-0.5,1c-0.3,0.2-0.6,0.4-0.9,0.6c-0.1,0-0.3-0.1-0.4-0.1c-0.1,0-0.3,0-0.4,0
		c-0.9-0.1-1.8,0-2.6,0.2c-0.8,0.2-1.6,0.3-2.5,0.4c-0.3,0-0.6,0-0.8,0c-0.2,0-0.5,0-0.8,0c-0.9,0.1-1.9,0.1-3,0.2
		c-1,0-2.1,0.1-3.2,0.1c-1.1,0.1-2.1,0.2-3.1,0.3c-1,0.1-2,0.3-2.9,0.6c-0.1-0.1-0.2-0.1-0.2-0.2c-0.1-0.1-0.2-0.1-0.3-0.1
		c-0.3,0-0.6,0-0.8,0.1c-0.3,0.1-0.5,0.1-0.8,0c-0.3,0.2-0.6,0.3-1,0.3c-0.3,0.1-0.7,0.1-1,0.1c-0.3,0-0.7,0.1-1,0.1
		c-0.3,0.1-0.6,0.2-0.9,0.4c-0.2-0.1-0.5-0.2-0.8-0.2c-0.3,0-0.6-0.2-0.7-0.4c-0.7,0.3-1.4,0.4-2.1,0.5c-0.7,0-1.5,0-2.2-0.1
		c-0.5-0.1-1.1-0.2-1.7-0.3c-0.6-0.2-1.3-0.4-1.9-0.6c-0.6-0.3-1.2-0.6-1.7-0.9c-0.5-0.3-0.9-0.7-1.2-1.2c-0.2-0.3-0.3-0.6-0.4-1
		c-0.1-0.4-0.3-0.6-0.6-0.8c0.1-0.7,0.3-1.3,0.4-1.9c0.2-0.6,0.3-1.3,0.5-1.9c0.6-0.5,1.2-0.9,1.8-1.5c0.6-0.5,1.1-1.1,1.6-1.6
		c0.6-0.2,1.1-0.5,1.6-0.9c0.5-0.3,1-0.7,1.5-1.1c0.5-0.4,1-0.7,1.5-1.1c0.5-0.3,1-0.6,1.6-0.9c0.1-0.2,0.2-0.4,0.4-0.5
		c0.2-0.1,0.3-0.2,0.5-0.4s0.4-0.3,0.5-0.4c0.2-0.1,0.3-0.3,0.3-0.6c1.1-0.5,2-1.3,2.8-2.1c0.8-0.9,1.4-1.9,1.7-3
		c-0.5-0.4-1-0.7-1.6-0.9c-0.6-0.2-1.3-0.3-1.9-0.4c-0.6-0.1-1.2-0.1-1.8-0.1c-0.6,0-1.3-0.1-1.9-0.2c-0.7,0.2-1.3,0.3-2,0.3
		c-0.7,0-1.4,0-2,0c-0.7,0-1.3,0-2,0.1c-0.7,0.1-1.3,0.3-1.9,0.6c-0.1,0-0.2,0-0.3-0.1c-0.1,0-0.2-0.1-0.3-0.1
		c-0.9-0.1-1.8,0-2.6,0.4c-0.8,0.3-1.7,0.7-2.5,1c-0.1,0.1-0.1,0.2-0.1,0.3c0,0.2,0,0.3,0.1,0.5c0.1,0.2,0.1,0.3,0.1,0.5
		c0,0,0,0.1,0,0.1c0,0,0,0.1,0,0.1c0,0.1-0.1,0.3-0.1,0.4c-0.1,0.1-0.1,0.2-0.2,0.4c-0.4,0.9-0.6,1.8-0.7,2.7
		c-0.1,0.8-0.1,1.5-0.1,2.2c0,0.7-0.1,1.5-0.1,2.2c-0.1,0.9-0.3,1.8-0.6,2.6c0.1,0.7,0.2,1.4,0.3,2.2c0.1,0.8,0.2,1.5,0.3,2.3
		c0.1,0.8,0.3,1.5,0.5,2.2c0.2,0.7,0.5,1.4,0.8,2.1c0,0.1,0,0.1,0,0.1c0.1,0,0.1,0.1,0.2,0.1l0.3,0c0.1,0,0.2,0.1,0.2,0.2
		c0.1,0.1,0.1,0.2,0.1,0.2c0,0.1,0.1,0.1,0.2,0.2c0.1,0.1,0,0.2,0,0.3c-0.1,0.6-0.2,1.1-0.5,1.6c-0.3,0.5-0.5,1-0.6,1.6
		c-0.4,0.1-0.7,0.1-1,0.1c-0.5-0.1-0.9-0.2-1.3-0.5c-0.4-0.3-0.7-0.6-1-1c-0.3-0.4-0.6-0.7-0.8-1.1c-0.3-0.4-0.6-0.7-0.9-1
		c-0.2-0.8-0.3-1.7-0.4-2.7c-0.1-1-0.4-1.9-0.8-2.6c0.1-0.3,0.2-0.6,0.2-0.9c0.1-0.6,0.1-1.2,0-1.7c-0.1-0.6-0.1-1.1,0-1.7
		c0-0.3,0.1-0.6,0.2-0.9c0.1-0.3,0.2-0.6,0.2-0.9c0.1-0.5,0-1-0.1-1.4c-0.1-0.5-0.1-1-0.1-1.4c0-0.2,0.1-0.5,0.2-0.7
		c0.1-0.2,0.2-0.4,0.4-0.6c-0.1-0.4-0.1-0.7-0.1-1c0.1-0.5,0.1-1,0.3-1.4c0.1-0.4,0.2-0.9,0.3-1.3c0-0.2,0-0.5,0-0.7
		c0-0.2,0-0.4-0.1-0.6l-0.4-0.2c-0.2,0-0.3,0-0.5,0.1c-0.2,0.1-0.3,0.2-0.4,0.3c-0.1,0.1-0.2,0.2-0.3,0.3c-0.1,0.1-0.2,0.1-0.3,0.1
		c-0.1,0-0.1,0-0.2,0c-0.1,0-0.1,0-0.2,0c-0.1,0-0.2,0-0.3,0.2c-0.2,0.1-0.4,0.2-0.6,0.3c-0.2,0.1-0.4,0.2-0.7,0.4
		c-0.2,0.1-0.4,0.2-0.5,0.2c-0.3-0.1-0.6-0.2-0.7-0.4c-0.2-0.2-0.3-0.3-0.5-0.5c-0.2-0.2-0.3-0.3-0.5-0.5c-0.2-0.1-0.4-0.2-0.6-0.2
		c-0.1-0.2-0.1-0.4-0.1-0.6s0-0.4,0.1-0.6l0-0.7c0.2-0.4,0.5-0.7,0.9-0.9c0.3-0.2,0.7-0.4,1.1-0.6l1.2-0.4c0.4-0.2,0.7-0.3,1.1-0.6
		l0.4,0c0.5,0.1,1,0,1.4-0.2c0.4-0.2,0.8-0.5,1.2-0.7c0.4-0.3,0.7-0.6,1.1-0.9c0.4-0.3,0.8-0.5,1.2-0.7c0.3,0.2,0.6,0.3,1,0.4
		c0.3,0.1,0.7,0.2,1.1,0.3c0.4,0,0.8,0,1.2-0.1c0.4-0.1,0.7-0.3,1-0.6c0.1,0.1,0.3,0.1,0.4,0.1c0.1,0,0.2,0,0.4,0
		c0.4,0.1,0.9,0,1.3-0.1c0.4-0.1,0.9-0.3,1.3-0.5c0.6,0.1,1.2,0.1,1.7,0c0.6-0.1,1.1-0.1,1.7-0.2s1.1-0.2,1.7-0.2
		c0.6-0.1,1.1-0.1,1.7,0c1,0.1,1.9,0.1,2.8-0.1c0.9-0.1,1.9-0.2,2.8,0c0.7,0.1,1.3,0.2,2,0.3c0.6,0.1,1.3,0.2,2,0.2
		c0.4,0.2,0.7,0.4,1,0.5c0.3,0.1,0.7,0.2,1.1,0.2c0.9,0.8,1.7,1.8,2.3,2.9l0,0.7c-0.1,0.7-0.2,1.3-0.5,1.9c-0.2,0.6-0.5,1.2-0.8,1.8
		c-0.3,0.6-0.7,1.2-1,1.8c-0.4,0.6-0.7,1.1-1,1.7c-2,1.6-4,3.2-6,4.7c-2,1.6-4,3.1-6.1,4.5c-0.1,0.3-0.2,0.5-0.3,0.8
		c-0.1,0.2-0.2,0.5-0.2,0.7c0,0.1,0,0.3,0,0.4c0.2,0.1,0.4,0.2,0.5,0.4c0.1,0.2,0.2,0.4,0.1,0.6l0.4,0c0.1,0,0.2,0.1,0.2,0.2
		l0.7,0.1c1.1,0.1,2.2,0.2,3.3,0.1c1.1,0,2.2-0.1,3.4-0.2c1.1-0.1,2.2-0.1,3.4-0.2c1.1-0.1,2.2-0.1,3.3,0c0.3-0.1,0.5-0.1,0.8-0.2
		c0.3,0,0.6-0.1,0.8-0.3l0.1,0c0.2,0,0.4,0.1,0.4,0.2c0.1,0.1,0.2,0.2,0.4,0.2c0.1,0,0.3,0,0.5-0.1c0.2,0,0.3-0.1,0.5-0.1
		c0.4-0.1,0.8-0.1,1.3-0.1c0.5,0,0.9,0,1.3,0c1.7,0,3.4,0,5,0c1.7,0.1,3.3,0,5-0.3c0.1,0.2,0.3,0.4,0.6,0.5c0.3,0.1,0.5,0.2,0.8,0.3
		c0.3,0.1,0.5,0.2,0.8,0.3C367.5,189.4,367.7,189.6,367.8,189.9z"/>
	<path d="M384.2,170.8l0,0.2c-0.2,0-0.3,0.2-0.3,0.4c-0.3,0.1-0.7,0.2-1,0.3c-0.4,0.1-0.7,0.1-1,0.3c-0.3,0-0.6-0.1-1-0.1
		c-0.3,0-0.7-0.1-1-0.1c-0.9-0.1-1.7-0.1-2.6-0.1c-0.9,0-1.7-0.1-2.6-0.2c-0.4,0.2-0.9,0.4-1.4,0.5c-0.5,0.1-0.9,0.1-1.4,0.1
		c-0.3,0-0.6-0.1-0.9-0.2c-0.7,0.3-1.5,0.5-2.3,0.7c-0.8,0.2-1.7,0.4-2.5,0.5c-0.9,0.2-1.7,0.4-2.5,0.6c-0.8,0.2-1.5,0.6-2.1,1
		c-0.1,0.4-0.2,0.8-0.2,1.2c-0.1,0.4-0.1,0.8-0.1,1.1c0,0.4,0,0.8,0,1.1c0,0.4,0.1,0.7,0.2,1.1c0.1,0.1,0.3,0.1,0.5,0.2
		c0.2,0,0.4,0.1,0.5,0.1c0.1,0,0.3,0,0.4,0c0.1,0,0.3-0.1,0.3-0.3c0.4,0,0.9,0,1.3,0c0.4,0,0.9,0.1,1.3,0.1c0.4,0,0.9,0,1.3,0
		s0.8,0,1.3-0.1c0.5-0.1,0.9-0.1,1.4-0.1s0.9,0,1.3,0c0.4,0,0.9,0,1.4-0.1c0.5,0,1-0.2,1.5-0.4c0.4,0.2,0.7,0.3,1.1,0.3
		s0.8,0.1,1.1,0.2c0.2,0.2,0.4,0.3,0.5,0.5c0.1,0.2,0.2,0.4,0.2,0.6c0,0.4-0.2,0.8-0.5,1.2c-0.3,0.4-0.6,0.8-0.8,1.1l-0.5,0
		c-0.7,0-1.4,0-2,0.2c-0.7,0.1-1.3,0.3-2,0.5c-0.7,0.2-1.3,0.4-2,0.5c-0.7,0.1-1.3,0.2-2,0.2c-0.1,0-0.2,0.1-0.2,0.2
		c0,0.1-0.1,0.2-0.1,0.3c-0.1,0-0.4-0.1-0.6-0.1c-0.7,0-1.3,0-1.9,0.1c-0.6,0.1-1.2,0.1-1.9,0.1c-0.2,0-0.3,0-0.5-0.1
		c-0.2,0-0.3-0.1-0.5-0.1c-0.2,0.2-0.4,0.4-0.6,0.4c-0.2,0.1-0.5,0.2-0.7,0.3c-0.1,0.3-0.2,0.6-0.2,0.9c0,0.4-0.1,0.8-0.1,1.1
		c0,0.4-0.1,0.8-0.2,1.1c-0.1,0.3-0.2,0.6-0.4,0.8c0,0.1,0.1,0.2,0.3,0.2c0.2,0,0.3,0.1,0.3,0.3c0,0.3-0.1,0.5-0.1,0.8
		c-0.1,0.3-0.1,0.6-0.1,0.9c0,0.6,0,1.2,0.1,1.8c0.1,0.7,0.3,1.3,0.5,1.8c0.2,0.6,0.6,1,1,1.4c0.4,0.4,1,0.6,1.7,0.7
		c0.5,0,0.9,0,1.3-0.2c0.4-0.1,0.8-0.4,1.1-0.8l0.2,0c0.1,0,0.2,0,0.3,0.1c0.1,0,0.2,0.1,0.3,0.1c0.2,0,0.4-0.1,0.7-0.3
		c0.3-0.2,0.6-0.4,1-0.7c0.4-0.3,0.7-0.5,1.1-0.8c0.4-0.3,0.7-0.4,1-0.5c0.2-0.4,0.4-0.8,0.7-1.2c0.2-0.4,0.5-0.7,0.9-0.9l0.1-1.3
		c0.3-0.3,0.6-0.6,1-0.8c0.3-0.2,0.6-0.6,0.8-1c0.1,0.1,0.3,0.1,0.4,0.2c0.1,0,0.3,0.1,0.4,0.1c0.1,0,0.3,0,0.5,0
		c0.2,0,0.3-0.1,0.5-0.1c0.2,0.3,0.4,0.7,0.5,1.1c0.1,0.4,0.2,0.8,0.4,1.1c-0.3,0.5-0.6,1.1-1,1.8c-0.4,0.7-0.8,1.4-1.3,2.1
		c-0.5,0.7-0.9,1.4-1.4,2c-0.5,0.6-1,1.1-1.4,1.4c-0.1,0.1-0.3,0.2-0.6,0.3c-0.3,0.2-0.6,0.4-0.9,0.6c-0.3,0.2-0.5,0.4-0.8,0.7
		c-0.9,0.2-1.7,0.5-2.5,0.9c-0.8,0.4-1.6,0.8-2.4,1.1c-0.3-0.1-0.7-0.2-1.1-0.2c-0.3,0-0.7,0-1,0c-0.4,0-0.7,0-1.1,0
		c-0.1-0.2-0.3-0.3-0.5-0.3c-0.2-0.1-0.3-0.2-0.2-0.5c-1-0.1-1.8-0.4-2.3-1c-0.6-0.5-1.1-1.1-1.4-1.9c-0.4-0.7-0.7-1.5-0.9-2.3
		c-0.2-0.8-0.4-1.6-0.7-2.4l0-0.1c0-0.1,0.1-0.2,0.2-0.3c0.1,0,0.2-0.1,0.2-0.2c0-0.1,0-0.1,0-0.1c-0.1-0.3-0.1-0.6-0.2-0.8
		c0-0.2-0.1-0.5,0-0.8c0-0.5,0.1-0.9,0.2-1.4c0.1-0.4,0.1-0.9,0.2-1.4c0-0.5,0-0.9-0.1-1.2c0.1-0.1,0.2-0.3,0.3-0.6
		c0.1-0.2,0.2-0.5,0.2-0.8c0-0.3,0.1-0.5,0.1-0.8c0-0.3,0.1-0.5,0.2-0.7c-0.1-0.3-0.2-0.6-0.3-0.9c-0.1-0.3-0.1-0.6-0.1-0.9l0-0.3
		c0.3-0.5,0.6-1,0.8-1.5c0.2-0.5,0.5-1,0.8-1.6l0-0.1c0.1-0.8,0.1-1.7,0.1-2.5c0-0.8,0-1.7,0.1-2.5l0.1-0.8c0-0.3,0.1-0.6,0.1-0.8
		c0.2-0.1,0.4-0.2,0.6-0.4c0.1-0.2,0.3-0.3,0.6-0.4l1.4,0.1l0.3-0.4c0.1-0.1,0.2-0.3,0.2-0.5c0.3-0.1,0.6-0.2,1-0.3
		c0.3-0.1,0.6-0.3,0.9-0.4c0.4-0.2,0.8-0.4,1.1-0.6c0.3-0.2,0.7-0.3,1-0.4c0.3-0.1,0.7-0.2,1.1-0.3c0.4-0.1,0.8-0.1,1.3-0.1
		c0.2,0,0.4,0,0.5-0.1c0.1-0.1,0.2-0.2,0.3-0.3c0.3,0.1,0.7,0.2,1,0.2c0.3,0.1,0.7,0.1,1,0.1c0.7,0,1.4,0,2-0.3
		c0.9,0.1,1.7,0.1,2.6,0.1c0.9,0,1.7,0.1,2.6,0.1c0.8,0,1.5,0.1,2.3,0.2c0.7,0.1,1.5,0.3,2.2,0.4c0.3-0.1,0.6-0.1,0.9-0.1
		c0.3,0,0.7,0.1,1.1,0.2c0.4,0.1,0.7,0.1,1.1,0.1c0,0.3,0.1,0.6,0.2,0.8C384.2,170.2,384.2,170.5,384.2,170.8z"/>
</g>
<g>
	<path d="M317.3,527.2c-0.2,0.1-0.5,0.2-0.7,0.3s-0.5,0.1-0.8,0.1c-0.3,0-0.5,0.1-0.8,0.2s-0.4,0.2-0.5,0.5c-0.3-0.3-0.6-0.5-1-0.7
		c-0.3-0.2-0.7-0.4-1-0.7c-0.3,0.1-0.6,0.2-0.9,0.3s-0.6,0.2-0.9,0.2c-0.2,0-0.4-0.1-0.6-0.2c-0.2,0.2-0.5,0.3-0.8,0.4
		c-0.3,0.1-0.6,0.2-1,0.3s-0.6,0.2-0.9,0.3c-0.3,0.1-0.5,0.4-0.6,0.7c-0.1-0.1-0.2-0.2-0.4-0.1c-0.2,0.1-0.3,0-0.4-0.2
		c-0.9,0.3-1.9,0.6-2.8,0.8s-1.9,0.5-2.9,0.7c-1,0.3-1.9,0.6-2.8,0.9c-0.9,0.3-1.8,0.7-2.7,1.2c0,0,0,0.1,0,0.1c0,0.3,0,0.6,0.1,0.8
		c0.1,0.3,0.2,0.5,0.2,0.7c-0.5,1.8-0.9,3.6-1,5.4c-0.2,1.8-0.4,3.6-0.7,5.4v0.2c0,0.1,0.1,0.3,0.2,0.3c0.1,0.1,0.2,0.2,0.2,0.4
		l0,0.1c-0.1,0.1-0.2,0.2-0.3,0.4c-0.1,0.2-0.1,0.3-0.1,0.5c0,0.1,0,0.3,0.1,0.5c-0.5,1.7-0.8,3.3-1,5.1c-0.2,1.7-0.4,3.4-0.6,5.1
		l-0.4,2.9c-0.1,0.2-0.1,0.3-0.2,0.5c0,0.2-0.1,0.3-0.1,0.5c0,0.9,0.1,1.8,0.2,2.7s0.2,1.8,0.1,2.7c0.3,0.4,0.4,0.8,0.4,1.2
		c0,0.1,0,0.3,0,0.4c0,0.1,0,0.3-0.1,0.4c0.4,0.4,0.8,0.6,1.3,0.8c0.5,0.2,1,0.4,1.4,0.8v0.2c0,0.3,0,0.6-0.1,0.9
		c-0.1,0.3-0.2,0.6-0.2,0.8c-0.1,0.2-0.1,0.6-0.2,1c-0.1,0.4-0.2,0.7-0.3,0.9c-0.1,0.2-0.4,0.4-0.6,0.5c-0.3,0.2-0.5,0.2-0.8,0.2
		c-0.1,0-0.2,0-0.4-0.1s-0.3-0.2-0.4-0.2c-0.1,0-0.3,0.1-0.6,0.2c-0.2,0.1-0.5,0.2-0.7,0.2c-0.1,0-0.2,0-0.3,0
		c-0.1,0-0.2-0.1-0.3-0.1c-0.1-0.3-0.3-0.5-0.5-0.8c-0.2-0.2-0.5-0.4-0.8-0.6c0-0.4,0-0.7-0.2-0.9c-0.2-0.2-0.3-0.5-0.5-0.8
		c-0.1-0.4-0.1-0.9-0.2-1.4c0-0.5-0.3-0.9-0.7-1.1c0.1-0.2,0.2-0.5,0.2-0.8c0-0.1,0-0.3-0.1-0.5c0-0.2-0.1-0.3-0.3-0.4v-0.1
		c0-0.1,0-0.3,0.2-0.3s0.2-0.2,0.2-0.3v-0.2c-0.2-0.9-0.3-1.9-0.3-2.9c0-1,0-1.9,0.1-2.9c0.1-0.9,0.1-1.9,0-2.9
		c0.2-0.1,0.3-0.4,0.4-0.7c0.1-0.3,0.2-0.7,0.2-1c0.1-0.4,0.1-0.7,0.1-1.1c0-0.4,0-0.7,0.1-0.9c0.1-1.7,0.4-3.3,0.7-4.9
		c0.3-1.6,0.5-3.3,0.6-4.9c0.1-0.2,0.2-0.5,0.3-0.9c0-0.4,0-0.8,0-1.2s0-0.8,0.1-1.2c0.1-0.4,0.2-0.8,0.3-1c0-0.8,0.1-1.6,0.2-2.5
		c0.1-0.8,0.2-1.7,0.2-2.5c0-0.4,0-0.8-0.1-1.3c-0.3-0.1-0.6-0.2-0.8-0.2c-0.3,0-0.6,0.1-1,0.2s-0.6,0.3-0.7,0.6
		c-0.6,0-1.3,0.1-1.9,0.3c-0.6,0.2-1.2,0.3-1.8,0.3h-0.4c-0.1,0-0.2,0-0.4,0c-0.2,0.1-0.4,0.2-0.6,0.2c-0.2,0.1-0.3,0.2-0.3,0.5
		c-0.9,0.1-1.8,0.3-2.6,0.6c-0.9,0.3-1.7,0.6-2.5,0.9c-0.8,0.3-1.7,0.6-2.6,0.9c-0.9,0.3-1.7,0.5-2.6,0.6c-0.3,0.1-0.5,0.5-0.6,0.9
		c-0.6-0.1-1.2-0.2-1.6-0.5c-0.4-0.3-0.9-0.5-1.5-0.7c-0.2-0.6-0.3-1.2-0.3-1.7c0-0.7,0.1-1.4,0.4-2.1c0.3-0.7,0.8-1.2,1.4-1.5
		c0.1,0,0.3,0.1,0.4,0.1c0.1,0,0.2,0,0.4,0c0.5,0,0.9-0.1,1.4-0.3c0.5-0.2,0.9-0.3,1.4-0.3c0.1,0,0.3,0,0.5,0.1
		c0.2-0.1,0.5-0.2,0.8-0.3c0.3-0.1,0.6-0.1,0.9-0.2c0.3-0.1,0.5-0.2,0.8-0.3c0.2-0.1,0.4-0.3,0.4-0.6c0.1,0.1,0.3,0.2,0.5,0.2
		c0.2,0,0.3,0,0.5,0c0.4,0,0.8-0.1,1.2-0.2c0.4-0.1,0.7-0.4,1-0.7c0.2,0.2,0.5,0.3,0.9,0.3c0.4,0,0.8-0.1,1.2-0.3
		c0.4-0.2,0.8-0.3,1.2-0.3c0.3,0,0.5,0.1,0.7,0.3c0.3-0.3,0.7-0.5,1.1-0.6s0.9-0.3,1.3-0.4c0.4-0.1,0.9-0.2,1.3-0.4
		c0.4-0.1,0.7-0.3,0.9-0.6c0.1,0,0.4,0,0.7,0c0.5,0,1-0.1,1.4-0.2s0.9-0.3,1.4-0.4l0.9-0.1c0.2,0,0.4-0.1,0.6-0.2
		c0.2-0.1,0.4-0.2,0.6-0.3c0.2-0.1,0.4-0.2,0.6-0.2c0.2-0.1,0.5-0.1,0.8,0c0.7-0.4,1.4-0.7,2.2-0.9c0.8-0.2,1.6-0.4,2.4-0.5
		c0.8-0.2,1.6-0.3,2.4-0.6s1.5-0.5,2.2-1h0.1c0.6,0,1.2-0.1,1.7-0.3s1.1-0.5,1.6-0.8c0.1,0,0.2,0,0.3,0h0.3c0.8,0,1.6-0.1,2.4-0.3
		c0.8-0.2,1.6-0.3,2.4-0.3c0.5,0,0.9,0.1,1.2,0.2s0.6,0.3,0.8,0.5c0.2,0.2,0.5,0.4,0.7,0.5c0.3,0.2,0.6,0.3,1,0.4
		c0.3,0.5,0.4,1,0.4,1.6C317.2,526,317.2,526.6,317.3,527.2z"/>
	<path d="M336.4,565.5c-0.1,0.4-0.3,0.7-0.5,1c-0.3,0.2-0.6,0.4-1,0.6c-0.4,0.1-0.8,0.2-1.2,0.3c-0.4,0-0.7,0.1-1.1,0.1
		c-0.1,0-0.3,0-0.4,0c-0.1,0-0.3,0-0.4,0s-0.2,0.1-0.2,0.2c0,0.1-0.1,0.2-0.2,0.3c-0.1-0.1-0.3-0.1-0.4-0.1s-0.3,0-0.4,0
		c-0.2,0-0.4,0-0.6,0c-0.2,0-0.4,0-0.5,0c-0.2,0-0.4,0-0.5-0.1c-0.1-0.1-0.2-0.1-0.3-0.2c-0.1-0.1-0.1-0.2-0.2-0.2
		c-0.1-0.1-0.2-0.2-0.3-0.2c-0.2-0.1-0.4-0.1-0.5,0c-0.1,0.1-0.3,0-0.6-0.3c-0.3-0.3-0.6-0.6-0.9-1.1c-0.2-0.4-0.5-0.9-0.7-1.3
		s-0.5-0.9-0.7-1.4s-0.6-0.9-0.9-1.2h-0.3c-0.5,0-0.9,0.2-1.1,0.7c-0.1-0.1-0.3-0.2-0.4-0.3c-0.1-0.1-0.3-0.2-0.5-0.3
		c-0.7,0.2-1.4,0.4-2.1,0.5s-1.5,0.2-2.2,0.2h-0.6c-0.2,0-0.4,0-0.6-0.1c-0.3,0.1-0.6,0.3-0.8,0.4c-0.2,0.2-0.5,0.2-0.8,0.2
		c-0.2,0-0.4-0.1-0.6-0.2c-0.2,0-0.3,0.1-0.2,0.2s-0.1,0.2-0.3,0.2h-0.4c-0.4,0-0.8,0-1.2,0c-0.4,0-0.8,0-1.2,0
		c-0.6,0-1.1-0.1-1.7-0.2c-0.1,0.1-0.3,0.1-0.5,0.1c-0.1,0.1-0.2,0.2-0.3,0.3c-0.1,0.1-0.1,0.2-0.2,0.3c-0.1,0.1-0.1,0.2-0.2,0.3
		c-0.1,0.1-0.2,0.1-0.4,0.1c-0.1,0.3-0.2,0.6-0.4,0.8s-0.3,0.5-0.3,0.9c-0.3,0.2-0.6,0.4-0.8,0.7c-0.2,0.3-0.4,0.5-0.6,0.8
		c-0.2,0.3-0.4,0.6-0.6,0.8c-0.2,0.3-0.5,0.5-0.8,0.6c-0.1,0.2-0.2,0.5-0.1,0.8c-0.3,0.3-0.7,0.5-1.2,0.7s-0.9,0.3-1.3,0.3
		c-0.8,0-1.4-0.5-1.7-1.4c0-0.3,0-0.6,0.1-0.9c0-0.3,0.1-0.7,0.2-1c0.1-0.3,0.2-0.6,0.4-0.8c0.2-0.2,0.4-0.4,0.7-0.5
		c0-0.3-0.1-0.4-0.3-0.5c-0.2-0.1-0.2-0.3-0.2-0.5c0.8-0.4,1.5-0.9,2-1.5s1.1-1.3,1.6-1.9c0.5-0.7,1-1.4,1.5-2.1s1-1.3,1.7-1.9v-0.9
		c0.9-0.9,1.4-2,1.7-3.1c0.3-0.1,0.5-0.2,0.6-0.4s0.2-0.5,0.2-0.8c0.1,0,0.2-0.1,0.3-0.2c0-0.1,0.2-0.2,0.4-0.1
		c0.3-0.7,0.6-1.3,0.9-1.9c0.3-0.6,0.6-1.2,1-1.8c0.3-0.6,0.6-1.2,0.8-1.9c0.2-0.6,0.4-1.4,0.5-2.1c0.4,0,0.6-0.2,0.7-0.6
		c0-0.4,0.1-0.7,0.2-1c0.4-0.4,0.8-0.9,1-1.4c0.2-0.6,0.4-1.1,0.6-1.7c0.2-0.6,0.4-1.2,0.6-1.8c0.2-0.6,0.5-1.1,0.9-1.6v-0.1
		c0-0.1-0.1-0.2-0.2-0.3c-0.1,0-0.2-0.1-0.2-0.3c0,0,0-0.1,0-0.1c0.3-0.1,0.6-0.4,0.8-0.7c0.2-0.3,0.4-0.6,0.8-0.7
		c0.6,0.5,1.1,0.8,1.6,0.9s1.1,0.2,1.8,0.2c0.4,0.4,0.6,0.9,0.6,1.5c0,0.6,0.1,1.1,0.3,1.7c0.2,0.9,0.5,1.8,0.8,2.7s0.5,1.8,0.6,2.7
		c0.1,0.6,0.2,1.1,0.5,1.6c0.2,0.5,0.4,1,0.5,1.5c0.1,0.4,0.1,0.9,0,1.4c-0.1,0.5,0,1,0.2,1.3l0.3,0.7c0.1,0.3,0.3,0.7,0.4,1
		c0.1,0.3,0.2,0.7,0.3,1c0.2,0.9,0.4,1.8,0.6,2.8c0.2,1,0.5,1.9,0.9,2.7c0.1,0.3,0.4,0.5,0.7,0.6c0.3,0.1,0.6,0.2,1,0.2
		c0.4,0,0.7,0.1,1.1,0s0.7,0,0.9,0h0.4c0.2,0,0.3,0,0.5,0.1c0.1,0.2,0.2,0.4,0.2,0.6c0,0.3-0.1,0.6-0.3,0.8
		c-0.2,0.2-0.3,0.4-0.3,0.7c0,0.1,0.1,0.3,0.2,0.5c-0.1,0-0.3,0-0.5,0c-0.7,0-1.3,0.1-2,0.3c0.2,0.5,0.5,0.9,0.9,1.2
		c0.4,0.3,0.8,0.6,1.2,0.9c0.3-0.2,0.6-0.3,0.9-0.3c0.3,0,0.7,0.1,1,0.2c0.3,0.2,0.6,0.2,1,0.2c0.3,0,0.5,0,0.6-0.1
		c0.2,0.3,0.4,0.5,0.6,0.8C336,565,336.2,565.3,336.4,565.5z M322.7,558.6c-0.1-0.5-0.2-0.8-0.3-1.1c-0.1-0.2-0.2-0.5-0.3-0.8
		c-0.1-0.4-0.2-0.8-0.2-1.3c0-0.5-0.1-0.9-0.2-1.4c-0.2-1-0.4-2-0.7-3c-0.2-1-0.6-1.9-0.9-2.9c0.1-0.2,0.2-0.3,0.2-0.5v-0.1
		c-0.3-0.3-0.5-0.6-0.6-1.1c-0.1-0.4-0.2-0.8-0.3-1.3c-0.1-0.4-0.2-0.8-0.4-1.2c-0.2-0.4-0.4-0.7-0.8-0.9c-0.1,0.2-0.1,0.4-0.1,0.6
		c0,0.2,0,0.4,0.1,0.6s0.1,0.4,0.1,0.6c-0.3,0.1-0.5,0.4-0.6,0.7c-0.1,0.3-0.3,0.5-0.6,0.7c-0.2,0.9-0.6,1.8-1,2.6s-0.9,1.6-1.4,2.5
		s-0.9,1.6-1.4,2.5s-0.8,1.7-1,2.6c-0.4,0.3-0.6,0.6-0.8,1c-0.1,0.4-0.2,0.8-0.2,1.2c0.3,0.1,0.6,0.2,0.9,0.2c0.3,0,0.7,0,1,0
		c0.3,0,0.6,0,0.9,0.1c0.3,0.1,0.6,0.2,0.8,0.4c0.4-0.1,0.8-0.2,1.2-0.2c0.5,0,0.8-0.2,1.1-0.4c0.6,0.2,1.2,0.3,1.9,0.3
		c0.3,0,0.7,0,1-0.1s0.7-0.1,1-0.2c0.3,0.1,0.5,0.2,0.6,0.3s0.4,0.2,0.7,0.2c0.1-0.1,0.2-0.2,0.3-0.4
		C322.6,558.8,322.6,558.7,322.7,558.6z"/>
	<path d="M359.8,557.5c0,0.3-0.1,0.6-0.3,0.7c-0.2,0.2-0.3,0.4-0.3,0.6c0,0.1,0.1,0.3,0.2,0.4c-0.4,0-0.7,0.1-0.8,0.4
		c-0.1,0.3-0.3,0.6-0.4,0.9h-0.6c-0.1,0-0.3,0-0.3,0.1c-0.1,0.1-0.2,0.1-0.2,0.2c-0.1,0.1-0.2,0.3-0.3,0.5c-0.6,0.1-1.1,0.3-1.6,0.5
		c-0.5,0.2-1,0.5-1.5,0.8c-0.5,0.3-1,0.6-1.5,0.8c-0.5,0.3-1,0.5-1.5,0.7c-0.3,0.4-0.6,0.8-1.1,1h-0.1c-0.1,0-0.3,0-0.4-0.1
		c-0.1-0.1-0.2-0.1-0.4-0.1c-0.1,0-0.1,0-0.2,0c-0.9,0.6-1.8,0.9-2.9,0.9c-0.3,0-0.6,0-0.8-0.1s-0.5-0.1-0.8-0.1
		c-0.1,0-0.1,0-0.2,0.1l-0.1,0.2c0,0.1-0.1,0.1-0.1,0.2c0,0.1-0.2,0.1-0.3,0.1c-0.3,0-0.6,0-1-0.1c-0.3-0.1-0.7-0.1-1,0
		c-0.7-0.4-1.2-0.7-1.6-1.1c-0.4-0.3-0.7-0.9-1-1.6c-0.1-0.3-0.3-0.6-0.6-0.9c-0.2-0.3-0.4-0.6-0.5-1c0-0.1-0.1-0.3-0.1-0.6
		c-0.1-0.3-0.1-0.6-0.2-1c-0.1-0.3-0.1-0.7-0.2-1c0-0.3-0.1-0.5-0.1-0.7c0-0.3,0-0.7,0.1-1c0-0.3,0.1-0.7,0.2-1
		c0.2-1.1,0.3-2.2,0.4-3.3c0.1-1.1,0.3-2.2,0.7-3.2c-0.1-0.3-0.1-0.6-0.1-0.9v-1c0-0.6-0.1-1-0.2-1.4c0.2-0.4,0.3-0.8,0.3-1.3
		c0-0.5-0.2-0.8-0.7-0.9v-0.1c0-0.6-0.2-1.1-0.6-1.4c0-1,0.3-1.8,0.8-2.3c0.5-0.5,1.2-1,2-1.3c0.1-0.2,0.2-0.3,0.1-0.4
		c0.2,0.1,0.4,0.1,0.6,0.2c0.2,0.1,0.3,0.1,0.5,0.1c0.3,0,0.6,0,0.8-0.1c0.1,0.3,0.3,0.6,0.7,0.6c0.4,0.1,0.7,0.2,0.9,0.3v0.6
		c0,0.9,0.2,1.8,0.7,2.6c-0.1,0.2-0.2,0.5-0.2,0.7c0,0.3,0,0.5,0,0.7c0,0.3,0,0.7,0,1c0,0.3,0,0.7,0,1c0,0.3,0,0.7-0.1,1
		c-0.1,0.3-0.2,0.7-0.5,0.9c0,0.4-0.1,0.8-0.1,1.3c0,0.5,0,1-0.1,1.5c0,0.5-0.1,1-0.2,1.4c-0.1,0.5-0.3,0.8-0.5,1.1
		c0,0.4-0.1,0.9-0.1,1.3c0,0.5,0,0.9,0,1.3c0,0.6,0,1.4,0.1,2.3c0.1,0.9,0.3,1.6,0.6,2.2c0.1,0.2,0.4,0.4,0.9,0.5
		c0.4,0.1,0.8,0.2,1,0.2c0.3,0,0.6-0.1,1-0.2c0.3-0.1,0.6-0.3,0.7-0.5c0.2,0,0.3,0.1,0.3,0.3c0.1,0.1,0.2,0.3,0.3,0.3
		c1.7-0.7,3.3-1.4,5-2c1.7-0.6,3.3-1.4,4.9-2.2c0.2,0.1,0.5,0.2,0.7,0.2c0.3,0,0.6,0,0.9-0.1c0.3-0.1,0.6-0.1,0.9-0.1h0.3
		C359.8,557.3,359.8,557.4,359.8,557.5z"/>
	<path d="M387.1,541v0.2c-0.2,0.1-0.3,0.2-0.3,0.4c-0.3,0.1-0.7,0.3-1,0.3s-0.7,0.2-1,0.3c-0.3,0-0.6,0-1-0.1s-0.7,0-1,0
		c-0.9,0-1.7,0-2.6,0.1c-0.9,0.1-1.7,0.1-2.6,0c-0.4,0.2-0.9,0.4-1.3,0.5c-0.5,0.1-0.9,0.2-1.4,0.2c-0.3,0-0.7,0-0.9-0.1
		c-0.7,0.3-1.5,0.6-2.3,0.9c-0.8,0.2-1.7,0.5-2.5,0.7s-1.6,0.5-2.4,0.7c-0.8,0.3-1.4,0.7-2,1.2c-0.1,0.4-0.1,0.8-0.1,1.2
		c0,0.4,0,0.8,0,1.2c0,0.4,0,0.8,0.1,1.1s0.1,0.7,0.3,1c0.1,0.1,0.3,0.1,0.5,0.1c0.2,0,0.4,0,0.5,0c0.1,0,0.3,0,0.4-0.1
		c0.1,0,0.2-0.1,0.3-0.3c0.4-0.1,0.9-0.1,1.3-0.1c0.4,0,0.9,0,1.3,0c0.4,0,0.9,0,1.3,0c0.4,0,0.8-0.1,1.2-0.2
		c0.5-0.1,0.9-0.2,1.4-0.2c0.5,0,0.9-0.1,1.3-0.1c0.4,0,0.9-0.1,1.4-0.2c0.5-0.1,0.9-0.2,1.4-0.5c0.4,0.1,0.8,0.2,1.2,0.2
		s0.8,0,1.2,0.1c0.2,0.1,0.4,0.3,0.5,0.5c0.1,0.2,0.2,0.4,0.2,0.6c0,0.4-0.1,0.8-0.4,1.2c-0.3,0.4-0.5,0.8-0.7,1.1h-0.5
		c-0.7,0-1.4,0.1-2,0.3c-0.7,0.2-1.3,0.4-2,0.7c-0.7,0.2-1.3,0.5-2,0.7c-0.7,0.2-1.3,0.3-2,0.3c-0.1,0-0.2,0.1-0.2,0.2
		c0,0.1-0.1,0.2-0.1,0.3c-0.1,0-0.4,0-0.7,0c-0.7,0-1.3,0.1-1.9,0.2c-0.6,0.1-1.2,0.2-1.9,0.2c-0.2,0-0.3,0-0.5,0
		c-0.2,0-0.3,0-0.5-0.1c-0.1,0.2-0.3,0.4-0.6,0.5c-0.2,0.1-0.5,0.2-0.7,0.4c-0.1,0.3-0.1,0.6-0.2,1s0,0.8,0,1.2
		c0,0.4-0.1,0.8-0.1,1.1c-0.1,0.3-0.2,0.6-0.3,0.8c0,0.1,0.1,0.2,0.3,0.2c0.2,0,0.3,0.1,0.3,0.3c0,0.3,0,0.5-0.1,0.8
		c-0.1,0.3-0.1,0.6-0.1,0.9c0,0.6,0.1,1.2,0.2,1.8c0.1,0.7,0.3,1.3,0.6,1.8s0.6,1,1.1,1.4c0.5,0.4,1,0.5,1.7,0.5
		c0.5,0,0.9-0.1,1.3-0.3c0.4-0.2,0.7-0.5,1-0.9l0.2,0c0.1,0,0.2,0,0.3,0c0.1,0,0.2,0,0.3,0c0.2,0,0.4-0.1,0.7-0.3s0.6-0.5,0.9-0.8
		c0.3-0.3,0.7-0.6,1-0.9c0.3-0.3,0.7-0.5,1-0.6c0.2-0.4,0.4-0.8,0.6-1.2c0.2-0.4,0.5-0.7,0.8-1v-1.3c0.3-0.3,0.6-0.6,0.9-0.9
		c0.3-0.3,0.6-0.6,0.8-1c0.1,0.1,0.3,0.1,0.4,0.1c0.1,0,0.3,0,0.4,0c0.1,0,0.3,0,0.5,0c0.2,0,0.3-0.1,0.5-0.1
		c0.2,0.3,0.4,0.7,0.5,1.1s0.3,0.8,0.5,1.1c-0.3,0.5-0.6,1.1-0.9,1.9c-0.3,0.7-0.7,1.5-1.1,2.2c-0.4,0.7-0.8,1.4-1.3,2.1
		c-0.5,0.7-0.9,1.2-1.3,1.5c-0.1,0.1-0.3,0.2-0.6,0.3c-0.3,0.2-0.6,0.5-0.9,0.7c-0.3,0.2-0.5,0.5-0.7,0.8c-0.8,0.3-1.6,0.6-2.4,1
		c-0.8,0.4-1.5,0.9-2.3,1.3c-0.3-0.1-0.7-0.1-1.1-0.1c-0.3,0-0.7,0-1,0.1c-0.3,0-0.7,0.1-1.1,0.1c-0.1-0.1-0.3-0.2-0.5-0.3
		c-0.2,0-0.3-0.2-0.2-0.5c-1-0.1-1.8-0.3-2.4-0.8s-1.1-1.1-1.5-1.8c-0.4-0.7-0.8-1.5-1-2.3s-0.5-1.6-0.8-2.4v-0.1
		c0-0.1,0.1-0.2,0.2-0.3c0.1,0,0.2-0.1,0.2-0.3c0-0.1,0-0.1,0-0.1c-0.1-0.3-0.2-0.6-0.2-0.8c-0.1-0.2-0.1-0.5-0.1-0.8
		c0-0.5,0-0.9,0.1-1.4c0.1-0.5,0.1-0.9,0.1-1.4c0-0.5-0.1-0.9-0.2-1.2c0.1-0.1,0.2-0.3,0.3-0.6s0.1-0.5,0.2-0.8
		c0-0.3,0.1-0.5,0.1-0.8s0.1-0.5,0.1-0.7c-0.1-0.3-0.2-0.6-0.3-0.8s-0.1-0.5-0.1-0.9v-0.3c0.3-0.5,0.5-1,0.7-1.5
		c0.2-0.5,0.4-1.1,0.7-1.6v-0.1c0-0.8,0-1.7-0.1-2.5s-0.1-1.7-0.1-2.5V545c0-0.3,0-0.6,0-0.8c0.2-0.1,0.4-0.3,0.5-0.5
		s0.3-0.4,0.5-0.5h1.4l0.3-0.4c0.1-0.1,0.1-0.3,0.2-0.5c0.3-0.1,0.6-0.2,0.9-0.4c0.3-0.2,0.6-0.3,0.8-0.5c0.4-0.2,0.8-0.4,1.1-0.6
		c0.3-0.2,0.7-0.3,1-0.5s0.7-0.2,1.1-0.3c0.4-0.1,0.8-0.2,1.3-0.2c0.2,0,0.4,0,0.5-0.1c0.1-0.1,0.2-0.2,0.3-0.3
		c0.3,0.1,0.7,0.1,1,0.2c0.3,0,0.7,0.1,1,0.1c0.7,0,1.4-0.1,2-0.4c0.9,0,1.7,0,2.6,0c0.9,0,1.7,0,2.6,0c0.8,0,1.5,0,2.3,0.1
		c0.8,0.1,1.5,0.2,2.2,0.3c0.3-0.1,0.6-0.1,0.9-0.1c0.3,0,0.7,0,1.1,0.1c0.4,0.1,0.7,0.1,1.1,0c0,0.3,0.1,0.6,0.2,0.8
		C387,540.4,387.1,540.7,387.1,541z"/>
	<path d="M413.7,540.1c-0.1,0.3-0.1,0.6-0.2,0.9c-0.1,0.2-0.1,0.6-0.1,1c-0.3,0-0.5,0.1-0.7,0.3c-0.2,0.2-0.3,0.3-0.4,0.5
		c-0.1,0.2-0.2,0.4-0.3,0.6c-0.1,0.2-0.2,0.4-0.4,0.6c0.2,1,0.4,2.1,0.4,3.2c0,1.1,0.1,2.1,0.2,3.2c0.1,1.3,0.4,2.7,0.7,3.9
		c0.3,1.3,0.5,2.6,0.5,3.9c0,0.4,0,0.8,0,1.1s0,0.7,0,1.1c0,0.2,0,0.5,0,0.7c0,0.2,0,0.5,0,0.7c0,0.8-0.1,1.7-0.3,2.5
		s-0.4,1.7-0.5,2.5c-0.3,0.3-0.6,0.7-0.9,1c-0.2,0.4-0.5,0.7-0.8,1c-0.3,0.3-0.6,0.6-0.9,0.8s-0.8,0.4-1.3,0.5
		c-0.1,0.3-0.3,0.5-0.5,0.7c-0.2,0.1-0.5,0.3-0.6,0.6h-0.1c-0.7,0-1.4-0.1-1.9-0.3c-0.5-0.2-1-0.4-1.5-0.7c-0.5-0.3-0.9-0.5-1.4-0.8
		c-0.5-0.3-1-0.5-1.6-0.7c-0.8-0.7-1.6-1.4-2.2-2.2c-0.7-0.8-1.4-1.5-2.3-2.2c-0.2-0.6-0.5-1.1-0.8-1.4c-0.3-0.4-0.7-0.8-1-1.3
		c-0.1-0.2-0.3-0.4-0.3-0.6c-0.1-0.2-0.2-0.4-0.3-0.6c-0.1-0.2-0.2-0.4-0.4-0.5c-0.2-0.1-0.4-0.2-0.5-0.3c-0.2-0.9-0.6-1.7-1-2.5
		c-0.4-0.8-0.9-1.5-1.5-2.2c-0.2,0.3-0.3,0.7-0.4,1c-0.1,0.4-0.2,0.7-0.3,1.1c-0.1,0.4-0.2,0.7-0.3,1.1s-0.3,0.7-0.5,1v0.1
		c0,0.1,0.1,0.2,0.2,0.3c0.1,0,0.2,0.1,0.2,0.3c0,0,0,0.1,0,0.1c0,0,0,0.1,0,0.1c-0.1,0.1-0.3,0.3-0.3,0.4c-0.1,0.2-0.2,0.3-0.5,0.3
		c0,0.1,0,0.3,0,0.4v0.4c0,0.8-0.1,1.7-0.3,2.5c-0.2,0.8-0.3,1.7-0.3,2.6v0.6c0,0.2,0,0.4,0,0.6c0.1,0.2,0.1,0.3,0.3,0.5
		c0.1,0.2,0.2,0.3,0.2,0.5c0,0.2-0.1,0.4-0.3,0.6c0.2,0.1,0.4,0.3,0.7,0.5c0.3,0.2,0.5,0.4,0.7,0.6c0.2,0.2,0.4,0.5,0.5,0.7
		c0.1,0.2,0.2,0.5,0.2,0.8c0,0.5-0.2,0.8-0.5,1c-0.3,0.2-0.7,0.4-1.2,0.5c-0.5,0.1-0.9,0.2-1.4,0.3s-0.9,0.3-1.2,0.5h-0.1
		c-0.3,0-0.6-0.1-0.8-0.3c-0.2-0.2-0.4-0.3-0.8-0.3c-0.6-0.9-0.9-1.9-1.1-3c-0.2-1.1-0.3-2.2-0.3-3.2c0-1.2,0.1-2.5,0.3-3.7
		c0.2-1.2,0.5-2.5,0.8-3.7c0.3-1.2,0.6-2.4,1-3.6s0.7-2.4,1-3.6l0-0.1c0-0.1,0-0.2-0.1-0.3s-0.1-0.1-0.1-0.3c0-0.1,0-0.1,0-0.1
		c0.1-0.3,0.2-0.6,0.3-0.8c0.1-0.3,0.2-0.6,0.2-0.9c0.2-0.8,0.3-1.6,0.4-2.5c0.1-0.9,0.1-1.7,0.1-2.5s0-1.7,0.1-2.5
		c0-0.9,0.1-1.7,0.3-2.5c0.2-0.2,0.5-0.5,0.7-0.7s0.5-0.5,0.8-0.7c0.6,0,1.2,0.1,1.7,0.3c0.6,0.1,1.1,0.4,1.7,0.7
		c0.3,1.2,0.6,2.5,0.7,3.7c0.1,1.2,0.4,2.5,0.7,3.7v0.1c0,0.1,0.1,0.2,0.2,0.2c0.2,0,0.3,0,0.4,0.2c-0.1,0.1-0.1,0.2-0.1,0.3
		c0,0.1,0,0.2,0,0.3v0.7c0.1,0.2,0.1,0.5,0.2,0.7c0.1,0.3,0.3,0.4,0.6,0.5c0.1,0.9,0.4,1.8,0.7,2.6c0.3,0.8,0.6,1.5,1,2.3
		c0.4,0.7,0.8,1.4,1.2,2.2c0.4,0.7,0.9,1.5,1.4,2.2c0.7,0.6,1.4,1.2,1.9,1.9c0.5,0.7,1.1,1.4,1.6,2c0.5,0.7,1.1,1.2,1.8,1.7
		c0.7,0.5,1.6,0.8,2.7,0.9c0.1-0.1,0.2-0.3,0.3-0.5l0.2-0.6c0.1-0.2,0.2-0.4,0.3-0.5c0.1-0.2,0.3-0.3,0.5-0.4
		c0.1-0.8,0.1-1.6,0.2-2.5c0.1-0.8,0.3-1.6,0.5-2.4c-0.1-0.3-0.2-0.6-0.2-1c0-0.3,0-0.6,0.1-0.8c0-0.3,0.1-0.5,0.1-0.8
		c0-0.6-0.1-1-0.3-1.4c0-0.2,0-0.4,0-0.6c0-0.2,0.1-0.4,0.3-0.6c-0.2-0.6-0.4-1.2-0.5-1.8c-0.1-0.6-0.2-1.3-0.2-2
		c0-0.4,0-0.8,0.1-1.2c-0.2-0.4-0.3-0.9-0.3-1.5l-0.2-1.8c-0.1-0.6-0.1-1.2-0.3-1.7c-0.1-0.5-0.3-0.9-0.7-1.3
		c0.2-0.3,0.3-0.6,0.3-0.9c0-0.6-0.1-1.1-0.3-1.7c-0.2-0.5-0.3-1.1-0.3-1.7c0-0.4,0.1-0.8,0.3-1.2c0.6,0,1.3,0.1,1.9,0.2
		c0.6,0.1,1.2,0.2,1.9,0.2c0.2,0.2,0.4,0.4,0.6,0.6c0.2,0.1,0.5,0.3,0.7,0.4c0.3,0.1,0.5,0.3,0.8,0.4
		C413.3,539.6,413.5,539.8,413.7,540.1z"/>
	<path d="M455.6,540.7c-0.1,0.4-0.3,0.7-0.6,1l-0.7,0.9c-0.2,0.3-0.4,0.6-0.6,0.9c-0.2,0.3-0.2,0.7-0.2,1.2c-0.1,0-0.1,0-0.2,0
		c-0.1,0-0.2,0-0.2,0c-0.5,0-0.8,0.1-1.1,0.3s-0.6,0.4-1,0.5c-0.1-0.2-0.1-0.3-0.2-0.5c-0.1-0.2-0.2-0.3-0.4-0.3
		c-0.7,0.1-1.4,0.3-2.1,0.3c-0.7,0.1-1.4,0.2-2.1,0.3c-0.3,0.1-0.6,0.1-1,0.2c-0.3,0.1-0.7,0.2-1,0.3c-0.2,0.1-0.4,0.1-0.6,0.1
		c-0.2,0-0.4,0-0.6,0c-0.7,0-1.5,0.1-2.3,0.2s-1.5,0.3-2.2,0.7c-0.3-0.1-0.6-0.1-0.9-0.1s-0.6,0-1,0c-0.7,0-1.5,0.1-2.3,0.2
		s-1.6,0.4-2.2,0.8c-0.1-0.1-0.3-0.1-0.5-0.1c-0.2,0-0.3,0-0.5,0c-0.1,0-0.1,0-0.1,0s-0.1,0-0.1,0c0,0.3,0,0.5,0.1,0.8
		c0.1,0.2,0.3,0.4,0.5,0.6c-0.1,0.3-0.2,0.7-0.2,1c0,0.5,0,1,0.1,1.5c0.1,0.5,0.1,1,0.1,1.5c0,0.6-0.1,1-0.2,1.3
		c0.3,0.9,0.4,1.8,0.4,2.8c0,0.3,0,0.7-0.1,1s-0.1,0.7-0.1,1.1c0,0.3,0.1,0.6,0.3,0.8c0.2,0.2,0.3,0.4,0.3,0.8c0,0.1,0,0.2-0.1,0.3
		c0.4-0.1,0.8-0.2,1.2-0.4c0.4-0.2,0.8-0.2,1.2-0.2c0.2,0,0.5,0,0.7,0.1c0.2,0.1,0.4,0.2,0.6,0.3c0,0.1-0.1,0.3-0.1,0.5
		c0,0.2,0,0.3,0,0.5c0,0.3,0,0.6,0,0.9c0,0.3,0,0.6,0.1,0.9c-0.2,0.4-0.5,0.8-0.8,1.1c-0.3,0.3-0.5,0.7-0.6,1.2
		c-0.4,0-0.8,0.1-1.2,0.3c-0.3,0.2-0.6,0.4-0.9,0.6c-0.3,0.2-0.6,0.4-0.9,0.6c-0.3,0.2-0.6,0.3-1,0.3c-0.4,0-0.7-0.1-0.9-0.2
		c-0.2-0.1-0.3-0.3-0.4-0.4c-0.1-0.1-0.2-0.3-0.2-0.4c-0.1-0.1-0.2-0.2-0.5-0.1c-0.1-0.4-0.2-0.7-0.3-1.1c-0.2-0.3-0.4-0.7-0.5-1
		c-0.2-0.3-0.4-0.6-0.6-1c-0.2-0.3-0.3-0.7-0.4-1c-0.2-0.8-0.2-1.5-0.2-2.4c0-0.8-0.1-1.6-0.4-2.4c0.1-0.4,0.1-0.8,0.1-1.2
		c0-0.4,0-0.8,0-1.2c0-0.8,0-1.6-0.1-2.4c0-0.8-0.1-1.6-0.1-2.5c-0.2-0.3-0.3-0.6-0.4-0.9c0-0.3-0.1-0.7-0.1-1
		c-0.1-0.1-0.2-0.2-0.3-0.3c-0.1-0.1-0.2-0.2-0.2-0.3c-0.2-0.1-0.4-0.1-0.5-0.1c-0.4,0-0.7,0.1-1,0.3c-0.3,0.2-0.5,0.3-0.8,0.3
		s-0.5,0-0.7-0.1c-0.2-0.1-0.4-0.1-0.6-0.1c-0.2,0-0.3,0-0.3,0.1c0,0.1-0.1,0.1-0.2,0.2c-0.1,0.1-0.3,0.1-0.6,0.2
		c-0.3,0.1-0.7,0.1-1.1,0.2c-0.4,0-0.8,0.1-1.1,0.1s-0.6,0-0.7,0c-0.5,0-0.8-0.1-1.1-0.3c-0.2-0.2-0.5-0.4-0.9-0.6
		c0.1-0.2,0.1-0.3,0.1-0.3c0-0.3-0.1-0.5-0.3-0.7c-0.2-0.2-0.3-0.4-0.3-0.5c0-0.3,0.1-0.6,0.4-0.7c0.2-0.2,0.4-0.5,0.4-0.8
		c0.7-0.3,1.4-0.5,2-0.7s1.4-0.3,2.1-0.3c0.7-0.1,1.4-0.2,2.2-0.3c0.7-0.1,1.4-0.3,2.1-0.6c0.2,0,0.4,0.1,0.6,0.1c0.2,0,0.4,0,0.6,0
		c0.9,0,1.7-0.1,2.6-0.3c0.9-0.2,1.7-0.3,2.6-0.3c0.2,0,0.5,0,0.7,0c0.2,0,0.5,0.1,0.7,0.1c1.2-0.2,2.3-0.4,3.5-0.6
		c1.1-0.2,2.3-0.4,3.6-0.5c0.6-0.1,1.2-0.1,1.7-0.2c0.6,0,1.1-0.1,1.7-0.2c0.2,0,0.4-0.1,0.5-0.2c0.1-0.1,0.2-0.2,0.2-0.5
		c0.3,0.1,0.6,0.2,0.9,0.2c0.5,0,1-0.1,1.4-0.3c0.5-0.2,0.9-0.3,1.4-0.3c0.1,0,0.2,0,0.3,0c0.1,0,0.2,0,0.3,0c0.2,0,0.3-0.1,0.3-0.3
		c0-0.2,0.2-0.3,0.4-0.4c0.2-0.1,0.5-0.1,0.9-0.1c0.4,0,0.8-0.1,1.2-0.1c0.4,0,0.8-0.1,1.2-0.2s0.6-0.2,0.8-0.3l0.3-0.5
		c0.5,0,0.9,0.3,1.2,0.7s0.4,0.9,0.4,1.4c0.1,0.1,0.3,0.2,0.5,0.2c0.2,0,0.4,0,0.6,0H455.6z"/>
</g>
</svg>
