<?xml version="1.0" encoding="utf-8"?>
<!-- Generator: Adobe Illustrator 22.0.1, SVG Export Plug-In . SVG Version: 6.00 Build 0)  -->
<svg version="1.1" id="Layer_1" xmlns="http://www.w3.org/2000/svg" xmlns:xlink="http://www.w3.org/1999/xlink" x="0px" y="0px"
	 viewBox="0 0 612 792" style="enable-background:new 0 0 612 792;" xml:space="preserve">
<style type="text/css">
	.st0{fill:#FFFFFF;}
	.st1{fill:none;stroke:#FFFFFF;stroke-miterlimit:20;stroke-dasharray:9;}
	.st2{fill:none;stroke:#FFFFFF;stroke-width:2;stroke-miterlimit:20;stroke-dasharray:9;}
</style>
<g>
	<path d="M166,421.9l-7.9-21.2h-2.3l-3.6,21.2h-18.3l10.2-58H168c3.2,0,6,0.4,8.6,1.1c2.6,0.7,4.8,1.7,6.6,3.1c1.8,1.4,3.2,3,4.1,5
		c1,2,1.4,4.3,1.4,6.8c0,4.8-1.1,8.8-3.4,11.9c-2.3,3.1-5.4,5.2-9.3,6.4l11.3,23.7H166z M161.8,388.7c2.5,0,4.5-0.4,5.9-1.3
		c1.4-0.8,2.1-2.2,2.1-4.1c0-1.7-0.6-2.9-1.8-3.5c-1.2-0.6-2.8-0.9-4.8-0.9h-3.5l-1.7,9.7H161.8z M217.8,421.9l4-22.9
		c0.1-0.5,0.2-1,0.2-1.5c0-0.5,0-0.9,0-1.3c0-1.1-0.3-2-0.9-2.7c-0.6-0.7-1.6-1-2.9-1c-1.3,0-2.4,0.6-3.3,1.7c-1,1.1-1.6,2.7-2,4.9
		l-4,22.8h-18.4l10.9-61.9h18.4l-4.2,23.8h0.2c1.3-1.6,3-3,5.2-4.2c2.2-1.2,4.5-1.8,7-1.8c2.4,0,4.4,0.4,6.1,1.1
		c1.7,0.7,3,1.7,4.1,2.8c1.1,1.2,1.8,2.5,2.3,4.1c0.5,1.5,0.7,3.1,0.7,4.8c0,0.9,0,1.8-0.1,2.7c-0.1,1-0.2,1.9-0.4,2.7l-4.5,25.9
		H217.8z M269.3,423.2c-3.3,0-6.3-0.4-9.2-1.2c-2.8-0.8-5.3-2-7.5-3.7c-2.1-1.6-3.8-3.7-5-6.1c-1.2-2.4-1.8-5.2-1.8-8.3
		c0-3.6,0.6-7,1.8-10.2c1.2-3.2,2.9-6,5.2-8.4c2.3-2.4,5.1-4.3,8.4-5.7c3.3-1.4,7.1-2.1,11.3-2.1c3.3,0,6.4,0.4,9.3,1.2
		c2.9,0.8,5.4,2,7.5,3.7c2.1,1.6,3.8,3.7,5,6.1c1.2,2.4,1.8,5.2,1.8,8.3c0,3.6-0.6,7-1.8,10.2c-1.2,3.2-2.9,6-5.2,8.4
		c-2.3,2.4-5.1,4.3-8.5,5.7C277.4,422.5,273.6,423.2,269.3,423.2z M278.5,398.7c0-1.7-0.5-3.2-1.6-4.4c-1.1-1.2-2.7-1.8-4.8-1.8
		c-1.3,0-2.4,0.3-3.4,0.8c-1,0.5-1.9,1.2-2.6,2c-0.7,0.8-1.3,1.8-1.7,3c-0.4,1.1-0.6,2.3-0.6,3.6c0,1.8,0.5,3.3,1.6,4.5
		c1.1,1.2,2.7,1.8,4.8,1.8c1.3,0,2.5-0.2,3.5-0.7c1-0.5,1.9-1.2,2.6-2c0.7-0.9,1.3-1.9,1.6-3C278.3,401.3,278.5,400,278.5,398.7z
		 M305.5,383.2c0.2-1.6,0.4-3.1,0.5-4.4h17.7c-0.1,0.8-0.1,1.8-0.2,2.8c-0.1,1.1-0.2,2-0.3,2.7h0.3c1.2-1.6,2.9-3.1,5-4.5
		c2.1-1.4,4.7-2,7.6-2c3.2,0,5.7,0.6,7.6,1.7c1.9,1.1,3.3,2.7,4.2,4.7c1.4-1.7,3.2-3.2,5.2-4.5c2-1.3,4.6-1.9,7.7-1.9
		c2.5,0,4.7,0.4,6.4,1.2c1.8,0.8,3.2,1.9,4.3,3.2c1.1,1.3,1.9,2.8,2.5,4.4c0.5,1.6,0.8,3.3,0.8,4.9c0,0.8,0,1.5-0.1,2.2
		c-0.1,0.7-0.2,1.4-0.3,2l-4.6,26.1h-18.4l4-22.9c0.1-0.4,0.2-0.9,0.2-1.4c0-0.5,0-0.9,0-1.3c0-2.5-1.1-3.8-3.4-3.8
		c-1.2,0-2.2,0.6-3.1,1.8c-0.8,1.2-1.5,2.8-1.8,4.8l-4,22.8H325l4-22.7c0.1-0.4,0.2-0.9,0.2-1.4c0-0.5,0-0.8,0-1.1
		c0-1.3-0.3-2.3-0.9-3c-0.6-0.8-1.4-1.1-2.5-1.1c-1,0-2,0.5-2.9,1.6c-0.9,1-1.5,2.7-2,5l-4,22.8h-18.3l6.1-34.6
		C305,386.2,305.2,384.9,305.5,383.2z M415,377.8c2.8,0,5.3,0.5,7.5,1.4c2.2,1,4,2.3,5.4,3.9c1.5,1.7,2.6,3.6,3.3,5.9
		c0.7,2.2,1.1,4.6,1.1,7.2c0,3.7-0.6,7.1-1.8,10.4c-1.2,3.2-2.9,6.1-5,8.5c-2.2,2.4-4.7,4.3-7.6,5.7c-2.9,1.4-6.1,2.1-9.5,2.1
		c-2.8,0-5.3-0.5-7.5-1.6c-2.2-1-3.9-2.4-5.1-4.1h-0.2l-0.8,4.6h-16.5l10.9-61.9h18.3l-3.9,22.6h0.2c1.3-1.4,3-2.6,5-3.4
		C410.8,378.3,412.9,377.8,415,377.8z M414.5,398.7c0-1.7-0.6-3.2-1.7-4.4c-1.1-1.2-2.7-1.8-4.9-1.8c-1.3,0-2.4,0.3-3.4,0.8
		c-1,0.5-1.9,1.2-2.6,2c-0.7,0.8-1.3,1.8-1.7,3c-0.4,1.1-0.6,2.3-0.6,3.6c0,1.8,0.6,3.3,1.7,4.5c1.1,1.2,2.7,1.8,4.8,1.8
		c1.3,0,2.5-0.2,3.5-0.7c1-0.5,1.9-1.2,2.7-2c0.7-0.9,1.3-1.9,1.7-3C414.3,401.3,414.5,400,414.5,398.7z M480.6,417.5
		c-0.2,1.6-0.4,3.1-0.5,4.4h-17.7c0.1-0.8,0.1-1.8,0.2-2.8c0.1-1.1,0.2-2,0.3-2.7h-0.3c-1.3,1.7-3,3.3-5.3,4.6c-2.3,1.3-4.8,2-7.5,2
		c-2.4,0-4.4-0.4-6.1-1.1c-1.7-0.7-3-1.7-4.1-2.8c-1.1-1.2-1.8-2.5-2.3-4.1c-0.5-1.5-0.7-3.1-0.7-4.8c0-0.9,0-1.8,0.1-2.7
		c0.1-1,0.2-1.9,0.4-2.7l4.5-25.9h18.4l-4,22.9c-0.1,0.5-0.2,1-0.2,1.5c0,0.5,0,0.9,0,1.3c0,1.1,0.3,2,0.9,2.7c0.6,0.7,1.6,1,2.9,1
		c1.3,0,2.4-0.6,3.3-1.7c1-1.1,1.6-2.7,2-4.9l4.1-22.8h18.3l-6.1,34.6C481.1,414.5,480.8,415.8,480.6,417.5z M494.8,406.3
		c1.4,1.4,3.1,2.5,4.9,3.2c1.9,0.7,3.6,1.1,5.2,1.1c1.1,0,2-0.1,2.6-0.5c0.6-0.3,0.9-0.8,0.9-1.4s-0.4-1.2-1.3-1.6
		c-0.8-0.4-1.9-0.8-3.2-1.2c-1.9-0.5-3.6-1.2-5.1-1.9c-1.5-0.7-2.8-1.6-3.9-2.5c-1.1-1-1.9-2.1-2.5-3.4c-0.6-1.3-0.9-2.8-0.9-4.6
		c0-2.7,0.6-5,1.8-7c1.2-2,2.7-3.7,4.7-5c1.9-1.3,4.1-2.3,6.6-2.9c2.4-0.7,4.9-1,7.3-1c3.4,0,6.6,0.5,9.8,1.4c3.1,1,5.7,2.3,7.7,4.1
		l-9.4,10.8c-0.9-1-2.2-1.8-3.8-2.5c-1.6-0.7-3.2-1-4.8-1c-1.1,0-2,0.2-2.7,0.5c-0.7,0.3-1,0.8-1,1.4c0,0.5,0.3,1,0.9,1.3
		c0.6,0.3,1.6,0.6,3,1c2,0.5,3.9,1.1,5.5,1.8c1.7,0.7,3.1,1.6,4.3,2.7c1.2,1,2.1,2.3,2.8,3.7c0.7,1.4,1,3.1,1,5
		c0,2.9-0.6,5.4-1.9,7.4c-1.3,2-2.9,3.7-4.9,4.9c-2,1.3-4.2,2.2-6.6,2.7c-2.4,0.5-4.8,0.8-7.2,0.8c-3.1,0-6.4-0.4-9.8-1.3
		c-3.4-0.9-6.5-2.4-9.1-4.6L494.8,406.3z M159.4,334l-3.8,21.9h-9.9l3.8-21.9h-7.6l1.5-8.3h24.9l-1.5,8.3H159.4z M178.7,355.9
		l2.1-11.9c0.1-0.3,0.1-0.5,0.1-0.8c0-0.3,0-0.5,0-0.7c0-0.6-0.2-1-0.5-1.4c-0.3-0.4-0.8-0.5-1.5-0.5c-0.7,0-1.2,0.3-1.7,0.9
		c-0.5,0.6-0.8,1.4-1,2.5l-2.1,11.9h-9.6l5.7-32.3h9.6l-2.2,12.4h0.1c0.7-0.8,1.6-1.6,2.7-2.2c1.1-0.6,2.3-0.9,3.6-0.9
		c1.3,0,2.3,0.2,3.2,0.6c0.9,0.4,1.6,0.9,2.1,1.5c0.6,0.6,1,1.3,1.2,2.1c0.2,0.8,0.4,1.6,0.4,2.5c0,0.5,0,0.9-0.1,1.4
		c0,0.5-0.1,1-0.2,1.4l-2.3,13.5H178.7z M202.1,346.9c0,0.1,0,0.2,0,0.3c0,0.5,0.1,0.9,0.4,1.2c0.3,0.3,0.6,0.5,0.9,0.7
		c0.4,0.2,0.8,0.3,1.2,0.4c0.4,0.1,0.8,0.1,1.2,0.1c0.7,0,1.4-0.1,2.1-0.4c0.7-0.2,1.3-0.6,1.8-1.1l6.4,4.4
		c-1.5,1.5-3.2,2.6-5.1,3.2c-1.9,0.6-3.9,0.9-5.9,0.9c-1.6,0-3.1-0.2-4.5-0.6c-1.4-0.4-2.7-1.1-3.8-1.9c-1.1-0.9-1.9-1.9-2.5-3.2
		c-0.6-1.3-0.9-2.8-0.9-4.5c0-1.9,0.3-3.7,1-5.4c0.7-1.7,1.6-3.1,2.9-4.3c1.2-1.2,2.7-2.2,4.4-2.9c1.7-0.7,3.6-1,5.7-1
		c1.6,0,3.1,0.2,4.4,0.7c1.3,0.5,2.4,1.1,3.3,2c0.9,0.9,1.6,1.9,2.1,3.2s0.7,2.6,0.7,4.2c0,0.6,0,1.3-0.1,2c-0.1,0.7-0.2,1.4-0.4,2
		H202.1z M209.6,341.8c0-0.1,0-0.2,0-0.3c0-0.1,0-0.2,0-0.2c0-0.7-0.3-1.3-0.8-1.7c-0.5-0.4-1.3-0.7-2.2-0.7c-0.6,0-1.1,0.1-1.6,0.3
		c-0.5,0.2-0.9,0.4-1.2,0.7c-0.3,0.3-0.6,0.6-0.8,0.9c-0.2,0.3-0.4,0.6-0.4,0.9H209.6z"/>
	<g>
		<g>
			<path class="st0" d="M222.7,286.3l38.1,29.1l38.1,29.4l1.9,1.4l-2.4,0l-80.4,0.7l-0.3,0l-0.3-0.2L179.6,317l-18.9-14.8
				l-18.9-14.9l-1.6-1.3l2.1,0l40.3,0L222.7,286.3z M222.7,286.3l-40.3,0.7l-40.1,0.5l0.4-1.3l19,14.7l19,14.7l37.9,29.5l-0.6-0.2
				l80.4-0.3l-0.5,1.5l-37.6-29.7L222.7,286.3z"/>
		</g>
		<g>
			<path class="st0" d="M301,348.7c6.4,4.8,12.7,9.6,19.1,14.4l19.1,14.5l38.3,29.3l2.8,2.1l-3.5,0.1c-6.7,0.1-13.4,0.1-20.1,0.2
				l-20.1,0.2l-40.2,0.4l-0.5,0l-0.4-0.3l-37.8-29.7L238.7,365l-18.8-14.9l-2.4-1.9l3.1,0l20.2,0.1c6.7,0,13.4,0,20.1,0.1l20.1,0.2
				L301,348.7z M301,348.7l-20.2,0.5l-20.1,0.4c-6.7,0.2-13.4,0.2-20.1,0.4l-20,0.3l0.7-1.9l19.1,14.6l19,14.7l38,29.4l-0.9-0.3
				l40.2-0.1l20.1-0.1c6.7,0,13.4-0.1,20.1,0l-0.7,2.2l-37.5-29.8l-18.7-15.1C313.5,358.8,307.2,353.8,301,348.7z"/>
		</g>
		<g>
			<path class="st0" d="M311.6,289.8l38.1,29.1l38.1,29.4l1.9,1.4l-2.4,0l-80.4,0.7l-0.3,0l-0.3-0.2l-37.8-29.6l-18.9-14.8
				l-18.9-14.9l-1.6-1.3l2.1,0l40.3,0L311.6,289.8z M311.6,289.8l-40.3,0.7l-40.1,0.5l0.4-1.3l19,14.7l19,14.7l37.9,29.5l-0.6-0.2
				l80.4-0.3l-0.5,1.5l-37.6-29.7L311.6,289.8z"/>
		</g>
		<g>
			<path class="st0" d="M209.7,344.6c6.4,4.8,12.7,9.6,19.1,14.4l19.1,14.5l38.3,29.3l2.8,2.1l-3.5,0.1c-6.7,0.1-13.4,0.1-20.1,0.2
				l-20.1,0.2l-40.2,0.4l-0.5,0l-0.4-0.3l-37.8-29.7l-18.9-14.8L128.7,346l-2.4-1.9l3.1,0l20.2,0.1c6.7,0,13.4,0,20.1,0.1l20.1,0.2
				L209.7,344.6z M209.7,344.6l-20.2,0.5l-20.1,0.4c-6.7,0.2-13.4,0.2-20.1,0.4l-20,0.3l0.7-1.9l19.1,14.6l19,14.7l38,29.4l-0.9-0.3
				l40.2-0.1l20.1-0.1c6.7,0,13.4-0.1,20.1,0l-0.7,2.2l-37.5-29.8l-18.7-15.1C222.2,354.7,216,349.7,209.7,344.6z"/>
		</g>
		<g>
			<path class="st0" d="M235.5,228.7l38.1,29.1l38.1,29.4l1.9,1.4l-2.4,0l-80.4,0.7l-0.3,0l-0.3-0.2l-37.8-29.6l-18.9-14.8
				l-18.9-14.9l-1.6-1.3l2.1,0l40.3,0L235.5,228.7z M235.5,228.7l-40.3,0.7l-40.1,0.5l0.4-1.3l19,14.7l19,14.7l37.9,29.5l-0.6-0.2
				l80.4-0.3l-0.5,1.5l-37.6-29.7L235.5,228.7z"/>
		</g>
		<g>
			<path class="st0" d="M328.1,234.5l38.1,29.1l38.1,29.4l1.9,1.4l-2.4,0l-80.4,0.7l-0.3,0l-0.3-0.2L285,265.2l-18.9-14.8
				l-18.9-14.9l-1.6-1.3l2.1,0l40.3,0L328.1,234.5z M328.1,234.5l-40.3,0.7l-40.1,0.5l0.4-1.3l19,14.7l19,14.7l37.9,29.5l-0.6-0.2
				l80.4-0.3l-0.5,1.5l-37.6-29.7L328.1,234.5z"/>
		</g>
		<g>
			<path class="st0" d="M288.1,406.7c6.4,4.8,12.7,9.6,19.1,14.4l19.1,14.5l38.3,29.3l2.8,2.1l-3.5,0.1c-6.7,0.1-13.4,0.1-20.1,0.2
				l-20.1,0.2l-40.2,0.4l-0.5,0l-0.4-0.3l-37.8-29.7L225.8,423L207,408.1l-2.4-1.9l3.1,0l20.2,0.1c6.7,0,13.4,0,20.1,0.1l20.1,0.2
				L288.1,406.7z M288.1,406.7l-20.2,0.5l-20.1,0.4c-6.7,0.2-13.4,0.2-20.1,0.4l-20,0.3l0.7-1.9l19.1,14.6l19,14.7l38,29.4l-0.9-0.3
				l40.2-0.1l20.1-0.1c6.7,0,13.4-0.1,20.1,0l-0.7,2.2L325.6,437l-18.7-15.1C300.6,416.9,294.3,411.8,288.1,406.7z"/>
		</g>
		<g>
			<path class="st0" d="M196.8,402.6c6.4,4.8,12.7,9.6,19.1,14.4l19.1,14.5l38.3,29.3l2.8,2.1l-3.5,0.1c-6.7,0.1-13.4,0.1-20.1,0.2
				l-20.1,0.2l-40.2,0.4l-0.5,0l-0.4-0.3l-37.8-29.7l-18.9-14.8L115.8,404l-2.4-1.9l3.1,0l20.2,0.1c6.7,0,13.4,0,20.1,0.1l20.1,0.2
				L196.8,402.6z M196.8,402.6l-20.2,0.5l-20.1,0.4c-6.7,0.2-13.4,0.2-20.1,0.4l-20,0.3l0.7-1.9l19.1,14.6l19,14.7l38,29.4l-0.9-0.3
				l40.2-0.1l20.1-0.1c6.7,0,13.4-0.1,20.1,0l-0.7,2.2l-37.5-29.8l-18.7-15.1C209.3,412.8,203.1,407.7,196.8,402.6z"/>
		</g>
		<g>
			<path class="st0" d="M249.7,172.5l38.1,29.1l38.1,29.4l1.9,1.4l-2.4,0l-80.4,0.7l-0.3,0l-0.3-0.2l-37.8-29.6l-18.9-14.8
				l-18.9-14.9l-1.6-1.3l2.1,0l40.3,0L249.7,172.5z M249.7,172.5l-40.3,0.7l-40.1,0.5l0.4-1.3l19,14.7l19,14.7l37.9,29.5l-0.6-0.2
				l80.4-0.3l-0.5,1.5l-37.6-29.7L249.7,172.5z"/>
		</g>
		<g>
			<path class="st0" d="M184.2,459.4c6.4,4.8,12.7,9.6,19.1,14.4l19.1,14.5l38.3,29.3l2.8,2.1l-3.5,0.1c-6.7,0.1-13.4,0.1-20.1,0.2
				l-20.1,0.2l-40.2,0.4l-0.5,0l-0.4-0.3l-37.8-29.7l-18.9-14.8l-18.8-14.9l-2.4-1.9l3.1,0l20.2,0.1c6.7,0,13.4,0,20.1,0.1l20.1,0.2
				L184.2,459.4z M184.2,459.4l-20.2,0.5l-20.1,0.4c-6.7,0.2-13.4,0.2-20.1,0.4l-20,0.3l0.7-1.9l19.1,14.6l19,14.7l38,29.4l-0.9-0.3
				l40.2-0.1l20.1-0.1c6.7,0,13.4-0.1,20.1,0l-0.7,2.2l-37.5-29.8L203,474.5C196.7,469.5,190.5,464.5,184.2,459.4z"/>
		</g>
		<g>
			<path class="st0" d="M276.9,464.7c6.4,4.8,12.7,9.6,19.1,14.4l19.1,14.5l38.3,29.3l2.8,2.1l-3.5,0.1c-6.7,0.1-13.4,0.1-20.1,0.2
				l-20.1,0.2l-40.2,0.4l-0.5,0l-0.4-0.3l-37.8-29.7L214.6,481l-18.8-14.9l-2.4-1.9l3.1,0l20.2,0.1c6.7,0,13.4,0,20.1,0.1l20.1,0.2
				L276.9,464.7z M276.9,464.7l-20.2,0.5l-20.1,0.4c-6.7,0.2-13.4,0.2-20.1,0.4l-20,0.3l0.7-1.9l19.1,14.6l19,14.7l38,29.4l-0.9-0.3
				l40.2-0.1l20.1-0.1c6.7,0,13.4-0.1,20.1,0l-0.7,2.2L314.4,495l-18.7-15.1C289.4,474.9,283.2,469.8,276.9,464.7z"/>
		</g>
		<polygon class="st1" points="207.7,437.2 283.4,496.3 203,496.8 127.3,437.7 		"/>
		<polygon class="st1" points="220.6,379.1 296.3,438.2 215.9,438.7 140.2,379.6 		"/>
		<polygon class="st1" points="233.2,322.4 308.9,381.5 228.5,382 152.8,322.9 		"/>
		<polygon class="st2" points="246.2,264.1 321.9,323.2 241.5,323.7 165.8,264.6 		"/>
		<polygon class="st2" points="259,206.5 334.7,265.6 254.3,266.1 178.6,207 		"/>
	</g>
	<g>
		<g>
			<path class="st0" d="M429.9,337l5.3,16.9l5.3,17l10.4,34.1l0.7,2.3l-1.9-1.4l-48.8-34.2l-0.3-0.2l-0.1-0.3l-10-34.2l-5-17.1
				l-4.9-17.1l-0.6-2l1.7,1.2l24.2,17.4L429.9,337z M429.9,337l-24.7-16.8l-24.4-16.9l1.1-0.8l5.2,17l5.1,17l10.2,34.1l-0.4-0.5
				l48.6,34.5l-1.2,0.9l-9.8-34.1l-4.8-17.1L429.9,337z"/>
		</g>
		<g>
			<path class="st0" d="M450.2,408.4c1.8,5.6,3.6,11.2,5.4,16.8l5.4,16.9l10.6,34.1l1,3.4l-2.9-2l-12.2-8.5l-12.2-8.5l-24.4-17.1
				l-0.4-0.3l-0.1-0.5l-10-34.2l-4.9-17.1l-4.9-17.1l-0.9-3l2.5,1.8l12.1,8.8c4,2.9,8.1,5.8,12.1,8.8l12,8.8
				C442.3,402.5,446.2,405.4,450.2,408.4z M450.2,408.4c-4.2-2.8-8.3-5.6-12.5-8.3l-12.4-8.3c-4.1-2.8-8.2-5.6-12.3-8.4l-12.2-8.4
				l1.7-1.2l5.2,17l5.2,17l10.2,34.1l-0.6-0.8l24.3,17.2l12.1,8.7l12.1,8.7l-1.9,1.3l-9.6-34.1l-4.7-17.2
				C453.3,419.9,451.7,414.1,450.2,408.4z"/>
		</g>
		<g>
			<path class="st0" d="M482,377.5c1.8,5.6,3.6,11.2,5.4,16.8l5.4,16.9l10.6,34.1l1,3.4l-2.9-2l-12.2-8.5l-12.2-8.5l-24.4-17.1
				l-0.4-0.3l-0.1-0.5l-10-34.2l-4.9-17.1l-4.9-17.1l-0.9-3l2.5,1.8L446,351c4,2.9,8.1,5.8,12.1,8.8l12,8.8
				C474.1,371.6,478,374.5,482,377.5z M482,377.5c-4.2-2.8-8.3-5.6-12.5-8.3l-12.4-8.3c-4.1-2.8-8.2-5.6-12.3-8.4l-12.2-8.4l1.7-1.2
				l5.2,17l5.2,17l10.2,34.1l-0.6-0.8l24.3,17.2l12.1,8.7l12.1,8.7l-1.9,1.3l-9.6-34.1l-4.7-17.2C485.1,389,483.5,383.3,482,377.5z"
				/>
		</g>
		<g>
			<path class="st0" d="M396.9,366.6c1.8,5.6,3.6,11.2,5.4,16.8l5.4,16.9l10.6,34.1l1,3.4l-2.9-2l-12.2-8.5l-12.2-8.5l-24.4-17.1
				l-0.4-0.3l-0.1-0.5l-10-34.2l-4.9-17.1l-4.9-17.1l-0.9-3l2.5,1.8l12.1,8.8c4,2.9,8.1,5.8,12.1,8.8l12,8.8
				C389.1,360.7,393,363.6,396.9,366.6z M396.9,366.6c-4.2-2.8-8.3-5.6-12.5-8.3l-12.4-8.3c-4.1-2.8-8.2-5.6-12.3-8.4l-12.2-8.4
				l1.7-1.2l5.2,17l5.2,17l10.2,34.1l-0.6-0.8l24.3,17.2l12.1,8.7l12.1,8.7l-1.9,1.3l-9.6-34.1l-4.7-17.2
				C400,378.1,398.5,372.4,396.9,366.6z"/>
		</g>
		<g>
			<path class="st0" d="M462.4,307.8l5.3,16.9l5.3,17l10.4,34.1l0.7,2.3l-1.9-1.4l-48.8-34.2l-0.3-0.2L433,342l-10-34.2l-5-17.1
				l-4.9-17.1l-0.6-2l1.7,1.2l24.2,17.4L462.4,307.8z M462.4,307.8L437.7,291l-24.4-16.9l1.1-0.8l5.2,17l5.1,17l10.2,34.1l-0.4-0.5
				l48.6,34.5l-1.2,0.9l-9.8-34.1l-4.8-17.1L462.4,307.8z"/>
		</g>
		<g>
			<path class="st0" d="M515.7,351.2c1.8,5.6,3.6,11.2,5.4,16.8l5.4,16.9l10.6,34.1l1,3.4l-2.9-2L523,412l-12.2-8.5l-24.4-17.1
				L486,386l-0.1-0.5l-10-34.2l-4.9-17.1l-4.9-17.1l-0.9-3l2.5,1.8l12.1,8.8c4,2.9,8.1,5.8,12.1,8.8l12,8.8
				C507.8,345.3,511.8,348.3,515.7,351.2z M515.7,351.2c-4.2-2.8-8.3-5.6-12.5-8.3l-12.4-8.3c-4.1-2.8-8.2-5.6-12.3-8.4l-12.2-8.4
				l1.7-1.2l5.2,17l5.2,17l10.2,34.1l-0.6-0.8l24.3,17.2l12.1,8.7l12.1,8.7l-1.9,1.3l-9.6-34.1l-4.7-17.2
				C518.8,362.8,517.3,357,515.7,351.2z"/>
		</g>
		<g>
			<path class="st0" d="M417.4,437.8c1.8,5.6,3.6,11.2,5.4,16.8l5.4,16.9l10.6,34.1l1,3.4l-2.9-2l-12.2-8.5l-12.2-8.5L388,472.9
				l-0.4-0.3l-0.1-0.5l-10-34.2l-4.9-17.1l-4.9-17.1l-0.9-3l2.5,1.8l12.1,8.8c4,2.9,8.1,5.8,12.1,8.8l12,8.8
				C409.5,431.9,413.4,434.8,417.4,437.8z M417.4,437.8c-4.2-2.8-8.3-5.6-12.5-8.3l-12.4-8.3c-4.1-2.8-8.2-5.6-12.3-8.4l-12.2-8.4
				l1.7-1.2l5.2,17l5.2,17l10.2,34.1l-0.6-0.8l24.3,17.2l12.1,8.7l12.1,8.7l-1.9,1.3l-9.6-34.1l-4.7-17.2
				C420.5,449.3,418.9,443.6,417.4,437.8z"/>
		</g>
		<g>
			<path class="st0" d="M364.2,396c1.8,5.6,3.6,11.2,5.4,16.8l5.4,16.9l10.6,34.1l1,3.4l-2.9-2l-12.2-8.5l-12.2-8.5l-24.4-17.1
				l-0.4-0.3l-0.1-0.5l-10-34.2l-4.9-17.1l-4.9-17.1l-0.9-3l2.5,1.8l12.1,8.8c4,2.9,8.1,5.8,12.1,8.8l12,8.8
				C356.3,390.1,360.2,393.1,364.2,396z M364.2,396c-4.2-2.8-8.3-5.6-12.5-8.3l-12.4-8.3c-4.1-2.8-8.2-5.6-12.3-8.4l-12.2-8.4
				l1.7-1.2l5.2,17l5.2,17l10.2,34.1l-0.6-0.8l24.3,17.2l12.1,8.7l12.1,8.7l-1.9,1.3l-9.6-34.1l-4.7-17.2
				C367.3,407.5,365.7,401.8,364.2,396z"/>
		</g>
		<g>
			<path class="st0" d="M495.2,280.1l5.3,16.9l5.3,17l10.4,34.1l0.7,2.3l-1.9-1.4l-48.8-34.2l-0.3-0.2l-0.1-0.3l-10-34.2l-5-17.1
				l-4.9-17.1l-0.6-2l1.7,1.2l24.2,17.4L495.2,280.1z M495.2,280.1l-24.7-16.8L446,246.3l1.1-0.8l5.2,17l5.1,17l10.2,34.1l-0.4-0.5
				l48.6,34.5l-1.2,0.9l-9.8-34.1l-4.8-17.1L495.2,280.1z"/>
		</g>
		<g>
			<path class="st0" d="M332.1,424.8c1.8,5.6,3.6,11.2,5.4,16.8l5.4,16.9l10.6,34.1l1,3.4l-2.9-2l-12.2-8.5l-12.2-8.5l-24.4-17.1
				l-0.4-0.3l-0.1-0.5l-10-34.2l-4.9-17.1l-4.9-17.1l-0.9-3l2.5,1.8l12.1,8.8c4,2.9,8.1,5.8,12.1,8.8l12,8.8
				C324.2,418.9,328.2,421.8,332.1,424.8z M332.1,424.8c-4.2-2.8-8.3-5.6-12.5-8.3l-12.4-8.3c-4.1-2.8-8.2-5.6-12.3-8.4l-12.2-8.4
				l1.7-1.2l5.2,17l5.2,17l10.2,34.1l-0.6-0.8l24.3,17.2l12.1,8.7L353,492l-1.9,1.3l-9.6-34.1l-4.7-17.2
				C335.2,436.3,333.6,430.6,332.1,424.8z"/>
		</g>
		<g>
			<path class="st0" d="M385.7,467.9c1.8,5.6,3.6,11.2,5.4,16.8l5.4,16.9l10.6,34.1l1,3.4l-2.9-2l-12.2-8.5l-12.2-8.5l-24.4-17.1
				l-0.4-0.3l-0.1-0.5l-10-34.2l-4.9-17.1l-4.9-17.1l-0.9-3l2.5,1.8l12.1,8.8c4,2.9,8.1,5.8,12.1,8.8l12,8.8
				C377.8,462,381.7,465,385.7,467.9z M385.7,467.9c-4.2-2.8-8.3-5.6-12.5-8.3l-12.4-8.3c-4.1-2.8-8.2-5.6-12.3-8.4l-12.2-8.4
				l1.7-1.2l5.2,17l5.2,17l10.2,34.1l-0.6-0.8l24.3,17.2l12.1,8.7l12.1,8.7l-1.9,1.3l-9.6-34.1l-4.7-17.2
				C388.8,479.5,387.2,473.7,385.7,467.9z"/>
		</g>
		<polygon class="st1" points="355.8,421.5 376,489.7 327.3,455.4 307.1,387.1 		"/>
		<polygon class="st1" points="388.6,392.1 408.8,460.3 360.1,426 339.9,357.7 		"/>
		<polygon class="st1" points="420.7,363.3 440.9,431.5 392.2,397.2 372,329 		"/>
		<polygon class="st2" points="453.6,333.7 473.8,402 425.1,367.6 404.9,299.4 		"/>
		<polygon class="st2" points="486.1,304.5 506.3,372.8 457.6,338.5 437.4,270.2 		"/>
	</g>
</g>
</svg>
